<svg width="587" height="459" viewBox="0 0 587 459" fill="none" xmlns="http://www.w3.org/2000/svg">
<g filter="url(#filter0_f_2_4110)">
<ellipse cx="290.324" cy="258.474" rx="122.973" ry="36.4462" fill="url(#paint0_linear_2_4110)" fill-opacity="0.4"/>
<path d="M411.948 258.474C411.948 262.844 408.952 267.285 402.859 271.555C396.804 275.798 387.953 279.674 376.896 282.951C354.798 289.5 324.19 293.57 290.324 293.57C256.459 293.57 225.851 289.5 203.753 282.951C192.695 279.674 183.845 275.798 177.79 271.555C171.696 267.285 168.701 262.844 168.701 258.474C168.701 254.103 171.696 249.662 177.79 245.392C183.845 241.149 192.695 237.273 203.753 233.996C225.851 227.447 256.459 223.377 290.324 223.377C324.19 223.377 354.798 227.447 376.896 233.996C387.953 237.273 396.804 241.149 402.859 245.392C408.952 249.662 411.948 254.103 411.948 258.474Z" stroke="url(#paint1_linear_2_4110)" stroke-width="2.69931"/>
</g>
<g filter="url(#filter1_f_2_4110)">
<path d="M413.296 258.474C413.296 278.602 358.239 294.92 290.323 294.92" stroke="url(#paint2_linear_2_4110)" stroke-width="6.74827"/>
</g>
<ellipse cx="290.325" cy="288.036" rx="113.292" ry="42.2111" fill="url(#paint3_linear_2_4110)"/>
<path fill-rule="evenodd" clip-rule="evenodd" d="M290.324 331.272C354.413 331.272 406.367 311.914 406.367 288.036C406.367 264.157 354.413 244.8 290.324 244.8C226.236 244.8 174.282 264.157 174.282 288.036C174.282 311.914 226.236 331.272 290.324 331.272ZM290.325 330.247C352.895 330.247 403.617 311.348 403.617 288.036C403.617 264.723 352.895 245.825 290.325 245.825C227.756 245.825 177.033 264.723 177.033 288.036C177.033 311.348 227.756 330.247 290.325 330.247Z" fill="url(#paint4_linear_2_4110)"/>
<g filter="url(#filter2_f_2_4110)">
<path d="M290.867 377.147L81.3924 81.5731L505.184 81.5732L290.867 377.147Z" fill="url(#paint5_linear_2_4110)" fill-opacity="0.6"/>
</g>
<g filter="url(#filter3_df_2_4110)">
<path fill-rule="evenodd" clip-rule="evenodd" d="M290.324 331.272C354.413 331.272 406.367 311.914 406.367 288.036C406.367 264.157 354.413 244.8 290.324 244.8C226.236 244.8 174.282 264.157 174.282 288.036C174.282 311.914 226.236 331.272 290.324 331.272ZM290.325 330.435C352.895 330.435 403.617 311.452 403.617 288.036C403.617 264.619 352.895 245.637 290.325 245.637C227.756 245.637 177.033 264.619 177.033 288.036C177.033 311.452 227.756 330.435 290.325 330.435Z" fill="url(#paint6_linear_2_4110)" shape-rendering="crispEdges"/>
</g>
<g filter="url(#filter4_f_2_4110)">
<path fill-rule="evenodd" clip-rule="evenodd" d="M290.323 309.18C336.883 309.18 374.627 297.219 374.627 282.465C374.627 267.711 336.883 255.751 290.323 255.751C243.764 255.751 206.02 267.711 206.02 282.465C206.02 297.219 243.764 309.18 290.323 309.18ZM290.323 307.189C333.413 307.189 368.345 296.12 368.345 282.465C368.345 268.811 333.413 257.741 290.323 257.741C247.232 257.741 212.301 268.811 212.301 282.465C212.301 296.12 247.232 307.189 290.323 307.189Z" fill="url(#paint7_linear_2_4110)"/>
</g>
<g filter="url(#filter5_d_2_4110)">
<path fill-rule="evenodd" clip-rule="evenodd" d="M290.323 309.18C336.883 309.18 374.627 297.219 374.627 282.465C374.627 267.711 336.883 255.751 290.323 255.751C243.764 255.751 206.02 267.711 206.02 282.465C206.02 297.219 243.764 309.18 290.323 309.18ZM290.323 307.189C333.413 307.189 368.345 296.12 368.345 282.465C368.345 268.811 333.413 257.741 290.323 257.741C247.232 257.741 212.301 268.811 212.301 282.465C212.301 296.12 247.232 307.189 290.323 307.189Z" fill="url(#paint8_linear_2_4110)" shape-rendering="crispEdges"/>
</g>
<path fill-rule="evenodd" clip-rule="evenodd" d="M406.706 288.298C406.708 288.211 406.708 288.123 406.708 288.036C406.751 287.927 406.795 287.817 406.839 287.704L412.395 262.892C405.037 280.937 353.186 294.92 290.317 294.92C226.618 294.92 174.231 280.566 167.97 262.176L174.075 288.771L174.077 288.774C179.977 314.459 226.215 331.272 290.304 331.272C347.176 331.272 394.777 316.028 404.776 295.909L405.759 292.53L406.706 288.298Z" fill="url(#paint9_linear_2_4110)" fill-opacity="0.5"/>
<g filter="url(#filter6_f_2_4110)">
<path fill-rule="evenodd" clip-rule="evenodd" d="M335.746 278.797C335.746 286.746 315.41 293.19 290.325 293.19C265.24 293.19 244.904 286.746 244.904 278.797C244.904 270.848 265.24 264.404 290.325 264.404C312.155 264.404 330.387 269.284 334.752 275.789H331.152C326.649 270.29 310.077 266.21 290.324 266.21C267.107 266.21 248.287 271.846 248.287 278.797C248.287 285.748 267.107 291.383 290.324 291.383C313.54 291.383 332.361 285.748 332.361 278.797C332.361 278.797 332.361 278.797 332.361 278.797L335.746 278.797Z" fill="url(#paint10_linear_2_4110)"/>
</g>
<g filter="url(#filter7_f_2_4110)">
<path d="M326.962 278.797C326.962 284.648 310.559 289.392 290.325 289.392C270.09 289.392 253.687 284.648 253.687 278.797C253.687 272.946 270.09 268.202 290.325 268.202C310.559 268.202 326.962 272.946 326.962 278.797Z" fill="#4DFFFF"/>
</g>
<g filter="url(#filter8_f_2_4110)">
<path d="M290.29 339.019L175.571 135.949L404.425 135.949L290.29 339.019Z" fill="url(#paint11_linear_2_4110)"/>
</g>
<g filter="url(#filter9_f_2_4110)">
<path fill-rule="evenodd" clip-rule="evenodd" d="M401.176 293.828L401.74 281.856C399.405 283.396 396.814 284.884 393.988 286.313C393.737 290.081 393.438 294.565 393.168 299.118C396.151 297.42 398.829 295.654 401.176 293.828ZM383.893 303.752L384.515 290.542C380.735 292.038 376.67 293.448 372.348 294.762C372.056 299.281 371.763 304.088 371.553 308.499C375.966 307.015 380.091 305.429 383.893 303.752ZM360.879 311.734L361.534 297.721C356.293 299.007 350.763 300.165 344.983 301.183C344.668 306.033 344.357 311.117 344.152 315.636C350.012 314.479 355.602 313.173 360.879 311.734Z" fill="#B6E9FF" fill-opacity="0.4"/>
</g>
<g filter="url(#filter10_f_2_4110)">
<path d="M298.4 278.529C298.4 280.366 294.785 281.856 290.326 281.856C285.867 281.856 282.252 280.366 282.252 278.529C282.252 276.692 285.867 275.202 290.326 275.202C294.785 275.202 298.4 276.692 298.4 278.529Z" fill="#FFFA76"/>
</g>
<g filter="url(#filter11_f_2_4110)">
<path d="M284.777 306.861C250.937 306.326 219.099 298.955 206.384 294.895L205.098 305.573C211.926 309.266 219.751 312.027 231.115 314.319L231.537 311.236C234.419 311.967 243.034 312.994 246.981 313.416L247.311 308.782C260.579 311.189 276.135 311.554 284.279 311.745L284.389 311.747C284.383 311.382 284.658 309.523 284.777 306.861Z" fill="#B6E9FF" fill-opacity="0.4"/>
</g>
<g filter="url(#filter12_d_2_4110)">
<path fill-rule="evenodd" clip-rule="evenodd" d="M270.364 62.8139L269.97 71.5237L279.523 77.4106L283.973 63.4291C281.202 62.8924 275.391 62.4596 270.364 62.8139ZM265.833 101.77L236.555 82.2078C236.555 82.2078 239.668 79.495 244.641 77.2491C249.614 75.0032 254.528 74.0909 254.528 74.0909L265.833 101.77ZM244.281 107.689L300.658 135.504L282.106 105.935L308.195 108.967L299.329 85.3595C336.849 89.039 366.341 126.697 366.341 172.61C366.341 174.299 366.302 175.977 366.222 177.642C342.405 188.654 326.832 201.79 329.678 209.593C329.866 210.109 330.131 210.59 330.468 211.038C333.619 215.222 336.407 221.814 331.686 224.083C319.817 229.787 306.859 232.926 293.29 232.926C279.719 232.926 266.76 229.787 254.891 224.082C250.17 221.812 252.958 215.221 256.108 211.037C256.445 210.589 256.71 210.108 256.898 209.593C259.743 201.791 244.173 188.655 220.357 177.644C220.314 176.73 220.282 175.812 220.262 174.89C220.246 174.133 220.238 173.373 220.238 172.61C220.238 146.861 229.515 123.708 244.281 107.689ZM283.6 166.655C283.6 178.324 274.14 187.785 262.47 187.785C250.8 187.785 241.34 178.324 241.34 166.655C241.34 154.985 250.8 145.525 262.47 145.525C274.14 145.525 283.6 154.985 283.6 166.655ZM324.109 187.785C335.779 187.785 345.239 178.324 345.239 166.655C345.239 154.985 335.779 145.525 324.109 145.525C312.439 145.525 302.979 154.985 302.979 166.655C302.979 178.324 312.439 187.785 324.109 187.785ZM294.147 186.84L304.838 220.379C304.838 220.379 297.799 222.179 293.289 222.179C288.78 222.179 281.741 220.379 281.741 220.379L292.432 186.84C292.698 186.004 293.88 186.004 294.147 186.84Z" fill="url(#paint12_linear_2_4110)" shape-rendering="crispEdges"/>
</g>
<defs>
<filter id="filter0_f_2_4110" x="164.652" y="219.328" width="251.345" height="78.291" filterUnits="userSpaceOnUse" color-interpolation-filters="sRGB">
<feFlood flood-opacity="0" result="BackgroundImageFix"/>
<feBlend mode="normal" in="SourceGraphic" in2="BackgroundImageFix" result="shape"/>
<feGaussianBlur stdDeviation="1.34965" result="effect1_foregroundBlur_2_4110"/>
</filter>
<filter id="filter1_f_2_4110" x="287.624" y="255.774" width="131.746" height="45.2189" filterUnits="userSpaceOnUse" color-interpolation-filters="sRGB">
<feFlood flood-opacity="0" result="BackgroundImageFix"/>
<feBlend mode="normal" in="SourceGraphic" in2="BackgroundImageFix" result="shape"/>
<feGaussianBlur stdDeviation="1.34965" result="effect1_foregroundBlur_2_4110"/>
</filter>
<filter id="filter2_f_2_4110" x="0.413063" y="0.593971" width="585.75" height="457.533" filterUnits="userSpaceOnUse" color-interpolation-filters="sRGB">
<feFlood flood-opacity="0" result="BackgroundImageFix"/>
<feBlend mode="normal" in="SourceGraphic" in2="BackgroundImageFix" result="shape"/>
<feGaussianBlur stdDeviation="40.4896" result="effect1_foregroundBlur_2_4110"/>
</filter>
<filter id="filter3_df_2_4110" x="163.485" y="234.003" width="253.679" height="108.066" filterUnits="userSpaceOnUse" color-interpolation-filters="sRGB">
<feFlood flood-opacity="0" result="BackgroundImageFix"/>
<feColorMatrix in="SourceAlpha" type="matrix" values="0 0 0 0 0 0 0 0 0 0 0 0 0 0 0 0 0 0 127 0" result="hardAlpha"/>
<feOffset/>
<feGaussianBlur stdDeviation="5.39862"/>
<feComposite in2="hardAlpha" operator="out"/>
<feColorMatrix type="matrix" values="0 0 0 0 0.3625 0 0 0 0 0.847 0 0 0 0 1 0 0 0 0.25 0"/>
<feBlend mode="normal" in2="BackgroundImageFix" result="effect1_dropShadow_2_4110"/>
<feBlend mode="normal" in="SourceGraphic" in2="effect1_dropShadow_2_4110" result="shape"/>
<feGaussianBlur stdDeviation="2.69931" result="effect2_foregroundBlur_2_4110"/>
</filter>
<filter id="filter4_f_2_4110" x="195.223" y="244.953" width="190.201" height="75.0233" filterUnits="userSpaceOnUse" color-interpolation-filters="sRGB">
<feFlood flood-opacity="0" result="BackgroundImageFix"/>
<feBlend mode="normal" in="SourceGraphic" in2="BackgroundImageFix" result="shape"/>
<feGaussianBlur stdDeviation="5.39862" result="effect1_foregroundBlur_2_4110"/>
</filter>
<filter id="filter5_d_2_4110" x="181.726" y="231.457" width="217.194" height="102.016" filterUnits="userSpaceOnUse" color-interpolation-filters="sRGB">
<feFlood flood-opacity="0" result="BackgroundImageFix"/>
<feColorMatrix in="SourceAlpha" type="matrix" values="0 0 0 0 0 0 0 0 0 0 0 0 0 0 0 0 0 0 127 0" result="hardAlpha"/>
<feOffset/>
<feGaussianBlur stdDeviation="12.1469"/>
<feComposite in2="hardAlpha" operator="out"/>
<feColorMatrix type="matrix" values="0 0 0 0 0.141667 0 0 0 0 0.691 0 0 0 0 1 0 0 0 1 0"/>
<feBlend mode="normal" in2="BackgroundImageFix" result="effect1_dropShadow_2_4110"/>
<feBlend mode="normal" in="SourceGraphic" in2="effect1_dropShadow_2_4110" result="shape"/>
</filter>
<filter id="filter6_f_2_4110" x="242.204" y="261.704" width="96.2407" height="34.1851" filterUnits="userSpaceOnUse" color-interpolation-filters="sRGB">
<feFlood flood-opacity="0" result="BackgroundImageFix"/>
<feBlend mode="normal" in="SourceGraphic" in2="BackgroundImageFix" result="shape"/>
<feGaussianBlur stdDeviation="1.34965" result="effect1_foregroundBlur_2_4110"/>
</filter>
<filter id="filter7_f_2_4110" x="245.589" y="260.104" width="89.4717" height="37.3853" filterUnits="userSpaceOnUse" color-interpolation-filters="sRGB">
<feFlood flood-opacity="0" result="BackgroundImageFix"/>
<feBlend mode="normal" in="SourceGraphic" in2="BackgroundImageFix" result="shape"/>
<feGaussianBlur stdDeviation="4.04896" result="effect1_foregroundBlur_2_4110"/>
</filter>
<filter id="filter8_f_2_4110" x="159.375" y="119.753" width="261.245" height="235.462" filterUnits="userSpaceOnUse" color-interpolation-filters="sRGB">
<feFlood flood-opacity="0" result="BackgroundImageFix"/>
<feBlend mode="normal" in="SourceGraphic" in2="BackgroundImageFix" result="shape"/>
<feGaussianBlur stdDeviation="8.09793" result="effect1_foregroundBlur_2_4110"/>
</filter>
<filter id="filter9_f_2_4110" x="338.754" y="276.457" width="68.3851" height="44.5778" filterUnits="userSpaceOnUse" color-interpolation-filters="sRGB">
<feFlood flood-opacity="0" result="BackgroundImageFix"/>
<feBlend mode="normal" in="SourceGraphic" in2="BackgroundImageFix" result="shape"/>
<feGaussianBlur stdDeviation="2.69931" result="effect1_foregroundBlur_2_4110"/>
</filter>
<filter id="filter10_f_2_4110" x="271.454" y="264.405" width="37.7427" height="28.2482" filterUnits="userSpaceOnUse" color-interpolation-filters="sRGB">
<feFlood flood-opacity="0" result="BackgroundImageFix"/>
<feBlend mode="normal" in="SourceGraphic" in2="BackgroundImageFix" result="shape"/>
<feGaussianBlur stdDeviation="5.39862" result="effect1_foregroundBlur_2_4110"/>
</filter>
<filter id="filter11_f_2_4110" x="199.7" y="289.497" width="90.4757" height="30.2206" filterUnits="userSpaceOnUse" color-interpolation-filters="sRGB">
<feFlood flood-opacity="0" result="BackgroundImageFix"/>
<feBlend mode="normal" in="SourceGraphic" in2="BackgroundImageFix" result="shape"/>
<feGaussianBlur stdDeviation="2.69931" result="effect1_foregroundBlur_2_4110"/>
</filter>
<filter id="filter12_d_2_4110" x="193.245" y="35.692" width="200.089" height="224.227" filterUnits="userSpaceOnUse" color-interpolation-filters="sRGB">
<feFlood flood-opacity="0" result="BackgroundImageFix"/>
<feColorMatrix in="SourceAlpha" type="matrix" values="0 0 0 0 0 0 0 0 0 0 0 0 0 0 0 0 0 0 127 0" result="hardAlpha"/>
<feOffset/>
<feGaussianBlur stdDeviation="13.4965"/>
<feComposite in2="hardAlpha" operator="out"/>
<feColorMatrix type="matrix" values="0 0 0 0 0.204167 0 0 0 0 0.95225 0 0 0 0 1 0 0 0 0.7 0"/>
<feBlend mode="normal" in2="BackgroundImageFix" result="effect1_dropShadow_2_4110"/>
<feBlend mode="normal" in="SourceGraphic" in2="effect1_dropShadow_2_4110" result="shape"/>
</filter>
<linearGradient id="paint0_linear_2_4110" x1="290.324" y1="222.027" x2="290.324" y2="294.92" gradientUnits="userSpaceOnUse">
<stop stop-color="#DEF9FF" stop-opacity="0.5"/>
<stop offset="1" stop-color="#E9FBFF" stop-opacity="0"/>
</linearGradient>
<linearGradient id="paint1_linear_2_4110" x1="290.324" y1="305.123" x2="290.324" y2="210.675" gradientUnits="userSpaceOnUse">
<stop stop-color="#E8FEFF"/>
<stop offset="1" stop-color="#E8FEFF" stop-opacity="0"/>
</linearGradient>
<linearGradient id="paint2_linear_2_4110" x1="295.329" y1="297.309" x2="408.999" y2="262.75" gradientUnits="userSpaceOnUse">
<stop stop-color="#E8FEFF" stop-opacity="0"/>
<stop offset="0.599389" stop-color="#E8FEFF"/>
<stop offset="1" stop-color="#E8FEFF" stop-opacity="0"/>
</linearGradient>
<linearGradient id="paint3_linear_2_4110" x1="290.325" y1="245.825" x2="290.325" y2="330.247" gradientUnits="userSpaceOnUse">
<stop stop-color="#DEF9FF" stop-opacity="0.5"/>
<stop offset="1" stop-color="#E9FBFF" stop-opacity="0"/>
</linearGradient>
<linearGradient id="paint4_linear_2_4110" x1="290.324" y1="244.8" x2="290.324" y2="331.272" gradientUnits="userSpaceOnUse">
<stop stop-color="#DEF9FF" stop-opacity="0.5"/>
<stop offset="1" stop-color="#E9FBFF" stop-opacity="0.9"/>
</linearGradient>
<linearGradient id="paint5_linear_2_4110" x1="290.866" y1="377.147" x2="290.866" y2="81.5731" gradientUnits="userSpaceOnUse">
<stop offset="0.250952" stop-color="#5FF5FF" stop-opacity="0"/>
<stop offset="0.453702" stop-color="#5FE2FF"/>
<stop offset="1" stop-color="#5FD8FF" stop-opacity="0"/>
</linearGradient>
<linearGradient id="paint6_linear_2_4110" x1="290.324" y1="244.8" x2="290.324" y2="331.272" gradientUnits="userSpaceOnUse">
<stop stop-color="#DEF9FF" stop-opacity="0.5"/>
<stop offset="1" stop-color="#E9FBFF" stop-opacity="0.9"/>
</linearGradient>
<linearGradient id="paint7_linear_2_4110" x1="290.325" y1="255.751" x2="290.325" y2="309.18" gradientUnits="userSpaceOnUse">
<stop stop-color="#9FF9FF"/>
<stop offset="1" stop-color="#A9FFFA" stop-opacity="0.6"/>
</linearGradient>
<linearGradient id="paint8_linear_2_4110" x1="290.325" y1="255.751" x2="290.325" y2="309.18" gradientUnits="userSpaceOnUse">
<stop stop-color="#72F7FF"/>
<stop offset="1" stop-color="#A9FFFA" stop-opacity="0.6"/>
</linearGradient>
<linearGradient id="paint9_linear_2_4110" x1="146.796" y1="296.724" x2="446.932" y2="296.724" gradientUnits="userSpaceOnUse">
<stop stop-color="#B4F1FF"/>
<stop offset="0.472727" stop-color="#D8FFFD" stop-opacity="0"/>
<stop offset="1" stop-color="#B4F1FF"/>
</linearGradient>
<linearGradient id="paint10_linear_2_4110" x1="290.326" y1="264.404" x2="290.326" y2="293.19" gradientUnits="userSpaceOnUse">
<stop stop-color="#72F7FF"/>
<stop offset="1" stop-color="#96FFF9" stop-opacity="0.6"/>
</linearGradient>
<linearGradient id="paint11_linear_2_4110" x1="290.289" y1="339.019" x2="290.289" y2="135.949" gradientUnits="userSpaceOnUse">
<stop offset="0.250952" stop-color="#5FF5FF" stop-opacity="0"/>
<stop offset="0.453702" stop-color="#5FE2FF"/>
<stop offset="1" stop-color="#5FD8FF" stop-opacity="0"/>
</linearGradient>
<linearGradient id="paint12_linear_2_4110" x1="293.29" y1="147.806" x2="293.289" y2="280.473" gradientUnits="userSpaceOnUse">
<stop stop-color="white"/>
<stop offset="1" stop-color="white" stop-opacity="0"/>
</linearGradient>
</defs>
</svg>
