<svg width="587" height="459" viewBox="0 0 587 459" fill="none" xmlns="http://www.w3.org/2000/svg">
<g filter="url(#filter0_f_2_3930)">
<ellipse cx="290.748" cy="258.848" rx="122.973" ry="36.4462" fill="url(#paint0_linear_2_3930)" fill-opacity="0.4"/>
<path d="M412.372 258.848C412.372 263.218 409.376 267.659 403.283 271.929C397.228 276.172 388.377 280.048 377.32 283.325C355.222 289.874 324.614 293.944 290.748 293.944C256.883 293.944 226.275 289.874 204.177 283.325C193.119 280.048 184.269 276.172 178.214 271.929C172.12 267.659 169.125 263.218 169.125 258.848C169.125 254.477 172.12 250.036 178.214 245.766C184.269 241.523 193.119 237.647 204.177 234.37C226.275 227.821 256.883 223.751 290.748 223.751C324.614 223.751 355.222 227.821 377.32 234.37C388.377 237.647 397.228 241.523 403.283 245.766C409.376 250.036 412.372 254.477 412.372 258.848Z" stroke="url(#paint1_linear_2_3930)" stroke-width="2.69931"/>
</g>
<g filter="url(#filter1_f_2_3930)">
<path d="M413.72 258.848C413.72 278.976 358.663 295.294 290.747 295.294" stroke="url(#paint2_linear_2_3930)" stroke-width="6.74827"/>
</g>
<ellipse cx="290.749" cy="288.41" rx="113.292" ry="42.2111" fill="url(#paint3_linear_2_3930)"/>
<path fill-rule="evenodd" clip-rule="evenodd" d="M290.748 331.646C354.837 331.646 406.791 312.288 406.791 288.41C406.791 264.531 354.837 245.174 290.748 245.174C226.66 245.174 174.706 264.531 174.706 288.41C174.706 312.288 226.66 331.646 290.748 331.646ZM290.749 330.621C353.319 330.621 404.041 311.722 404.041 288.41C404.041 265.097 353.319 246.199 290.749 246.199C228.18 246.199 177.457 265.097 177.457 288.41C177.457 311.722 228.18 330.621 290.749 330.621Z" fill="url(#paint4_linear_2_3930)"/>
<g filter="url(#filter2_f_2_3930)">
<path d="M291.291 377.521L81.8165 81.9472L505.608 81.9472L291.291 377.521Z" fill="url(#paint5_linear_2_3930)" fill-opacity="0.6"/>
</g>
<g filter="url(#filter3_df_2_3930)">
<path fill-rule="evenodd" clip-rule="evenodd" d="M290.748 331.646C354.837 331.646 406.791 312.288 406.791 288.41C406.791 264.531 354.837 245.174 290.748 245.174C226.66 245.174 174.706 264.531 174.706 288.41C174.706 312.288 226.66 331.646 290.748 331.646ZM290.749 330.809C353.319 330.809 404.041 311.826 404.041 288.41C404.041 264.993 353.319 246.01 290.749 246.01C228.18 246.01 177.457 264.993 177.457 288.41C177.457 311.826 228.18 330.809 290.749 330.809Z" fill="url(#paint6_linear_2_3930)" shape-rendering="crispEdges"/>
</g>
<g filter="url(#filter4_f_2_3930)">
<path fill-rule="evenodd" clip-rule="evenodd" d="M290.747 309.554C337.307 309.554 375.051 297.593 375.051 282.839C375.051 268.085 337.307 256.125 290.747 256.125C244.188 256.125 206.444 268.085 206.444 282.839C206.444 297.593 244.188 309.554 290.747 309.554ZM290.747 307.563C333.837 307.563 368.769 296.494 368.769 282.839C368.769 269.185 333.837 258.115 290.747 258.115C247.656 258.115 212.725 269.185 212.725 282.839C212.725 296.494 247.656 307.563 290.747 307.563Z" fill="url(#paint7_linear_2_3930)"/>
</g>
<g filter="url(#filter5_d_2_3930)">
<path fill-rule="evenodd" clip-rule="evenodd" d="M290.747 309.554C337.307 309.554 375.051 297.593 375.051 282.839C375.051 268.085 337.307 256.125 290.747 256.125C244.188 256.125 206.444 268.085 206.444 282.839C206.444 297.593 244.188 309.554 290.747 309.554ZM290.747 307.563C333.837 307.563 368.769 296.494 368.769 282.839C368.769 269.185 333.837 258.115 290.747 258.115C247.656 258.115 212.725 269.185 212.725 282.839C212.725 296.494 247.656 307.563 290.747 307.563Z" fill="url(#paint8_linear_2_3930)" shape-rendering="crispEdges"/>
</g>
<path fill-rule="evenodd" clip-rule="evenodd" d="M407.13 288.672C407.132 288.585 407.132 288.498 407.132 288.41C407.175 288.301 407.219 288.191 407.264 288.078L412.819 263.266C405.461 281.311 353.611 295.294 290.741 295.294C227.042 295.294 174.655 280.94 168.395 262.55L174.499 289.145L174.501 289.149C180.401 314.833 226.64 331.646 290.728 331.646C347.6 331.646 395.202 316.403 405.2 296.283L406.183 292.904L407.13 288.672Z" fill="url(#paint9_linear_2_3930)" fill-opacity="0.5"/>
<g filter="url(#filter6_f_2_3930)">
<path fill-rule="evenodd" clip-rule="evenodd" d="M336.17 279.171C336.17 287.12 315.835 293.564 290.749 293.564C265.664 293.564 245.328 287.12 245.328 279.171C245.328 271.222 265.664 264.778 290.749 264.778C312.579 264.778 330.812 269.658 335.177 276.163H331.577C327.073 270.664 310.502 266.585 290.748 266.585C267.532 266.585 248.711 272.22 248.711 279.171C248.711 286.122 267.532 291.758 290.748 291.758C313.964 291.758 332.785 286.122 332.785 279.171C332.785 279.171 332.785 279.171 332.785 279.171L336.17 279.171Z" fill="url(#paint10_linear_2_3930)"/>
</g>
<g filter="url(#filter7_f_2_3930)">
<path d="M327.387 279.171C327.387 285.022 310.983 289.766 290.749 289.766C270.514 289.766 254.111 285.022 254.111 279.171C254.111 273.32 270.514 268.576 290.749 268.576C310.983 268.576 327.387 273.32 327.387 279.171Z" fill="#4DFFFF"/>
</g>
<g filter="url(#filter8_f_2_3930)">
<path d="M290.714 339.393L175.995 136.323L404.849 136.323L290.714 339.393Z" fill="url(#paint11_linear_2_3930)"/>
</g>
<g filter="url(#filter9_f_2_3930)">
<path fill-rule="evenodd" clip-rule="evenodd" d="M401.6 294.202L402.165 282.23C399.829 283.77 397.239 285.258 394.413 286.687C394.161 290.455 393.863 294.939 393.593 299.492C396.575 297.795 399.253 296.028 401.6 294.202ZM384.317 304.126L384.939 290.916C381.16 292.412 377.094 293.822 372.773 295.136C372.48 299.655 372.187 304.462 371.978 308.873C376.391 307.389 380.515 305.803 384.317 304.126ZM361.303 312.108L361.958 298.095C356.717 299.381 351.187 300.539 345.407 301.557C345.092 306.407 344.781 311.491 344.577 316.011C350.436 314.853 356.026 313.548 361.303 312.108Z" fill="#B6E9FF" fill-opacity="0.4"/>
</g>
<g filter="url(#filter10_f_2_3930)">
<path d="M298.824 278.903C298.824 280.74 295.209 282.23 290.75 282.23C286.291 282.23 282.676 280.74 282.676 278.903C282.676 277.066 286.291 275.576 290.75 275.576C295.209 275.576 298.824 277.066 298.824 278.903Z" fill="#FFFA76"/>
</g>
<g filter="url(#filter11_f_2_3930)">
<path d="M285.201 307.235C251.362 306.7 219.523 299.329 206.808 295.269L205.522 305.947C212.35 309.64 220.175 312.401 231.539 314.693L231.962 311.61C234.843 312.341 243.458 313.368 247.405 313.79L247.735 309.156C261.003 311.563 276.559 311.928 284.704 312.119L284.813 312.121C284.807 311.756 285.082 309.897 285.201 307.235Z" fill="#B6E9FF" fill-opacity="0.4"/>
</g>
<g filter="url(#filter12_d_2_3930)">
<path fill-rule="evenodd" clip-rule="evenodd" d="M300.209 151.441C304.457 148.477 307.341 142.696 307.341 136.05C307.341 126.384 301.239 118.547 293.711 118.547C286.184 118.547 280.081 126.384 280.081 136.05C280.081 142.696 282.965 148.477 287.214 151.441C280.08 153.345 274.195 158.309 271.053 164.842C255.71 162.71 245.259 158.479 245.259 153.609C245.259 147.987 259.181 143.218 278.475 141.544C278.309 140.784 278.177 140.006 278.081 139.213C250.14 141.006 229.443 147.499 229.443 155.233C229.443 162.115 245.831 168.014 269.126 170.493C268.769 172.18 268.581 173.929 268.581 175.723V200.35H278.846L279.328 210.989C259.592 209.382 245.259 204.556 245.259 198.852C245.259 194.569 253.343 190.78 265.727 188.479V185.608C244.252 188.281 229.443 193.934 229.443 200.476C229.443 208.349 250.885 214.934 279.582 216.588L280.785 243.143C280.85 244.585 282.038 245.72 283.481 245.72H303.941C305.384 245.72 306.572 244.585 306.637 243.143L307.841 216.587C336.534 214.933 357.972 208.348 357.972 200.476C357.972 193.934 343.165 188.281 321.692 185.608V188.479C334.075 190.781 342.157 194.569 342.157 198.852C342.157 204.556 327.827 209.381 308.095 210.988L308.577 200.35H318.841V175.722C318.841 173.929 318.653 172.18 318.296 170.493C341.588 168.012 357.972 162.114 357.972 155.233C357.972 147.498 337.273 141.006 309.331 139.213C309.234 140.006 309.102 140.784 308.936 141.544C328.233 143.218 342.157 147.987 342.157 153.609C342.157 158.479 331.709 162.709 316.37 164.841C313.227 158.309 307.343 153.345 300.209 151.441ZM277.464 229.74C249.837 231.588 229.443 238.042 229.443 245.719C229.443 254.838 258.216 262.231 293.708 262.231C329.2 262.231 357.972 254.838 357.972 245.719C357.972 238.042 337.579 231.588 309.95 229.739L309.843 232.109C328.668 233.852 342.157 238.56 342.157 244.093C342.157 251.11 320.466 256.798 293.708 256.798C266.951 256.798 245.259 251.11 245.259 244.093C245.259 238.56 258.748 233.853 277.572 232.109L277.464 229.74Z" fill="url(#paint12_linear_2_3930)" shape-rendering="crispEdges"/>
</g>
<defs>
<filter id="filter0_f_2_3930" x="165.076" y="219.702" width="251.344" height="78.291" filterUnits="userSpaceOnUse" color-interpolation-filters="sRGB">
<feFlood flood-opacity="0" result="BackgroundImageFix"/>
<feBlend mode="normal" in="SourceGraphic" in2="BackgroundImageFix" result="shape"/>
<feGaussianBlur stdDeviation="1.34965" result="effect1_foregroundBlur_2_3930"/>
</filter>
<filter id="filter1_f_2_3930" x="288.048" y="256.148" width="131.746" height="45.2189" filterUnits="userSpaceOnUse" color-interpolation-filters="sRGB">
<feFlood flood-opacity="0" result="BackgroundImageFix"/>
<feBlend mode="normal" in="SourceGraphic" in2="BackgroundImageFix" result="shape"/>
<feGaussianBlur stdDeviation="1.34965" result="effect1_foregroundBlur_2_3930"/>
</filter>
<filter id="filter2_f_2_3930" x="0.837135" y="0.967995" width="585.75" height="457.533" filterUnits="userSpaceOnUse" color-interpolation-filters="sRGB">
<feFlood flood-opacity="0" result="BackgroundImageFix"/>
<feBlend mode="normal" in="SourceGraphic" in2="BackgroundImageFix" result="shape"/>
<feGaussianBlur stdDeviation="40.4896" result="effect1_foregroundBlur_2_3930"/>
</filter>
<filter id="filter3_df_2_3930" x="163.909" y="234.377" width="253.679" height="108.066" filterUnits="userSpaceOnUse" color-interpolation-filters="sRGB">
<feFlood flood-opacity="0" result="BackgroundImageFix"/>
<feColorMatrix in="SourceAlpha" type="matrix" values="0 0 0 0 0 0 0 0 0 0 0 0 0 0 0 0 0 0 127 0" result="hardAlpha"/>
<feOffset/>
<feGaussianBlur stdDeviation="5.39862"/>
<feComposite in2="hardAlpha" operator="out"/>
<feColorMatrix type="matrix" values="0 0 0 0 0.3625 0 0 0 0 0.847 0 0 0 0 1 0 0 0 0.25 0"/>
<feBlend mode="normal" in2="BackgroundImageFix" result="effect1_dropShadow_2_3930"/>
<feBlend mode="normal" in="SourceGraphic" in2="effect1_dropShadow_2_3930" result="shape"/>
<feGaussianBlur stdDeviation="2.69931" result="effect2_foregroundBlur_2_3930"/>
</filter>
<filter id="filter4_f_2_3930" x="195.647" y="245.328" width="190.201" height="75.0234" filterUnits="userSpaceOnUse" color-interpolation-filters="sRGB">
<feFlood flood-opacity="0" result="BackgroundImageFix"/>
<feBlend mode="normal" in="SourceGraphic" in2="BackgroundImageFix" result="shape"/>
<feGaussianBlur stdDeviation="5.39862" result="effect1_foregroundBlur_2_3930"/>
</filter>
<filter id="filter5_d_2_3930" x="182.15" y="231.831" width="217.194" height="102.017" filterUnits="userSpaceOnUse" color-interpolation-filters="sRGB">
<feFlood flood-opacity="0" result="BackgroundImageFix"/>
<feColorMatrix in="SourceAlpha" type="matrix" values="0 0 0 0 0 0 0 0 0 0 0 0 0 0 0 0 0 0 127 0" result="hardAlpha"/>
<feOffset/>
<feGaussianBlur stdDeviation="12.1469"/>
<feComposite in2="hardAlpha" operator="out"/>
<feColorMatrix type="matrix" values="0 0 0 0 0.141667 0 0 0 0 0.691 0 0 0 0 1 0 0 0 1 0"/>
<feBlend mode="normal" in2="BackgroundImageFix" result="effect1_dropShadow_2_3930"/>
<feBlend mode="normal" in="SourceGraphic" in2="effect1_dropShadow_2_3930" result="shape"/>
</filter>
<filter id="filter6_f_2_3930" x="242.629" y="262.079" width="96.2409" height="34.185" filterUnits="userSpaceOnUse" color-interpolation-filters="sRGB">
<feFlood flood-opacity="0" result="BackgroundImageFix"/>
<feBlend mode="normal" in="SourceGraphic" in2="BackgroundImageFix" result="shape"/>
<feGaussianBlur stdDeviation="1.34965" result="effect1_foregroundBlur_2_3930"/>
</filter>
<filter id="filter7_f_2_3930" x="246.013" y="260.478" width="89.4717" height="37.3853" filterUnits="userSpaceOnUse" color-interpolation-filters="sRGB">
<feFlood flood-opacity="0" result="BackgroundImageFix"/>
<feBlend mode="normal" in="SourceGraphic" in2="BackgroundImageFix" result="shape"/>
<feGaussianBlur stdDeviation="4.04896" result="effect1_foregroundBlur_2_3930"/>
</filter>
<filter id="filter8_f_2_3930" x="159.799" y="120.127" width="261.245" height="235.462" filterUnits="userSpaceOnUse" color-interpolation-filters="sRGB">
<feFlood flood-opacity="0" result="BackgroundImageFix"/>
<feBlend mode="normal" in="SourceGraphic" in2="BackgroundImageFix" result="shape"/>
<feGaussianBlur stdDeviation="8.09793" result="effect1_foregroundBlur_2_3930"/>
</filter>
<filter id="filter9_f_2_3930" x="339.178" y="276.831" width="68.3851" height="44.5778" filterUnits="userSpaceOnUse" color-interpolation-filters="sRGB">
<feFlood flood-opacity="0" result="BackgroundImageFix"/>
<feBlend mode="normal" in="SourceGraphic" in2="BackgroundImageFix" result="shape"/>
<feGaussianBlur stdDeviation="2.69931" result="effect1_foregroundBlur_2_3930"/>
</filter>
<filter id="filter10_f_2_3930" x="271.879" y="264.779" width="37.7424" height="28.248" filterUnits="userSpaceOnUse" color-interpolation-filters="sRGB">
<feFlood flood-opacity="0" result="BackgroundImageFix"/>
<feBlend mode="normal" in="SourceGraphic" in2="BackgroundImageFix" result="shape"/>
<feGaussianBlur stdDeviation="5.39862" result="effect1_foregroundBlur_2_3930"/>
</filter>
<filter id="filter11_f_2_3930" x="200.124" y="289.871" width="90.4755" height="30.2203" filterUnits="userSpaceOnUse" color-interpolation-filters="sRGB">
<feFlood flood-opacity="0" result="BackgroundImageFix"/>
<feBlend mode="normal" in="SourceGraphic" in2="BackgroundImageFix" result="shape"/>
<feGaussianBlur stdDeviation="2.69931" result="effect1_foregroundBlur_2_3930"/>
</filter>
<filter id="filter12_d_2_3930" x="202.45" y="91.554" width="182.515" height="197.67" filterUnits="userSpaceOnUse" color-interpolation-filters="sRGB">
<feFlood flood-opacity="0" result="BackgroundImageFix"/>
<feColorMatrix in="SourceAlpha" type="matrix" values="0 0 0 0 0 0 0 0 0 0 0 0 0 0 0 0 0 0 127 0" result="hardAlpha"/>
<feOffset/>
<feGaussianBlur stdDeviation="13.4965"/>
<feComposite in2="hardAlpha" operator="out"/>
<feColorMatrix type="matrix" values="0 0 0 0 0.204167 0 0 0 0 0.95225 0 0 0 0 1 0 0 0 0.7 0"/>
<feBlend mode="normal" in2="BackgroundImageFix" result="effect1_dropShadow_2_3930"/>
<feBlend mode="normal" in="SourceGraphic" in2="effect1_dropShadow_2_3930" result="shape"/>
</filter>
<linearGradient id="paint0_linear_2_3930" x1="290.748" y1="222.401" x2="290.748" y2="295.294" gradientUnits="userSpaceOnUse">
<stop stop-color="#DEF9FF" stop-opacity="0.5"/>
<stop offset="1" stop-color="#E9FBFF" stop-opacity="0"/>
</linearGradient>
<linearGradient id="paint1_linear_2_3930" x1="290.748" y1="305.497" x2="290.748" y2="211.049" gradientUnits="userSpaceOnUse">
<stop stop-color="#E8FEFF"/>
<stop offset="1" stop-color="#E8FEFF" stop-opacity="0"/>
</linearGradient>
<linearGradient id="paint2_linear_2_3930" x1="295.753" y1="297.683" x2="409.423" y2="263.124" gradientUnits="userSpaceOnUse">
<stop stop-color="#E8FEFF" stop-opacity="0"/>
<stop offset="0.599389" stop-color="#E8FEFF"/>
<stop offset="1" stop-color="#E8FEFF" stop-opacity="0"/>
</linearGradient>
<linearGradient id="paint3_linear_2_3930" x1="290.749" y1="246.199" x2="290.749" y2="330.621" gradientUnits="userSpaceOnUse">
<stop stop-color="#DEF9FF" stop-opacity="0.5"/>
<stop offset="1" stop-color="#E9FBFF" stop-opacity="0"/>
</linearGradient>
<linearGradient id="paint4_linear_2_3930" x1="290.748" y1="245.174" x2="290.748" y2="331.646" gradientUnits="userSpaceOnUse">
<stop stop-color="#DEF9FF" stop-opacity="0.5"/>
<stop offset="1" stop-color="#E9FBFF" stop-opacity="0.9"/>
</linearGradient>
<linearGradient id="paint5_linear_2_3930" x1="291.29" y1="377.521" x2="291.29" y2="81.9472" gradientUnits="userSpaceOnUse">
<stop offset="0.250952" stop-color="#5FF5FF" stop-opacity="0"/>
<stop offset="0.453702" stop-color="#5FE2FF"/>
<stop offset="1" stop-color="#5FD8FF" stop-opacity="0"/>
</linearGradient>
<linearGradient id="paint6_linear_2_3930" x1="290.748" y1="245.174" x2="290.748" y2="331.646" gradientUnits="userSpaceOnUse">
<stop stop-color="#DEF9FF" stop-opacity="0.5"/>
<stop offset="1" stop-color="#E9FBFF" stop-opacity="0.9"/>
</linearGradient>
<linearGradient id="paint7_linear_2_3930" x1="290.749" y1="256.125" x2="290.749" y2="309.554" gradientUnits="userSpaceOnUse">
<stop stop-color="#9FF9FF"/>
<stop offset="1" stop-color="#A9FFFA" stop-opacity="0.6"/>
</linearGradient>
<linearGradient id="paint8_linear_2_3930" x1="290.749" y1="256.125" x2="290.749" y2="309.554" gradientUnits="userSpaceOnUse">
<stop stop-color="#72F7FF"/>
<stop offset="1" stop-color="#A9FFFA" stop-opacity="0.6"/>
</linearGradient>
<linearGradient id="paint9_linear_2_3930" x1="147.22" y1="297.098" x2="447.356" y2="297.098" gradientUnits="userSpaceOnUse">
<stop stop-color="#B4F1FF"/>
<stop offset="0.472727" stop-color="#D8FFFD" stop-opacity="0"/>
<stop offset="1" stop-color="#B4F1FF"/>
</linearGradient>
<linearGradient id="paint10_linear_2_3930" x1="290.75" y1="264.778" x2="290.75" y2="293.564" gradientUnits="userSpaceOnUse">
<stop stop-color="#72F7FF"/>
<stop offset="1" stop-color="#96FFF9" stop-opacity="0.6"/>
</linearGradient>
<linearGradient id="paint11_linear_2_3930" x1="290.713" y1="339.393" x2="290.713" y2="136.323" gradientUnits="userSpaceOnUse">
<stop offset="0.250952" stop-color="#5FF5FF" stop-opacity="0"/>
<stop offset="0.453702" stop-color="#5FE2FF"/>
<stop offset="1" stop-color="#5FD8FF" stop-opacity="0"/>
</linearGradient>
<linearGradient id="paint12_linear_2_3930" x1="293.708" y1="190.389" x2="293.707" y2="302.36" gradientUnits="userSpaceOnUse">
<stop stop-color="white"/>
<stop offset="1" stop-color="white" stop-opacity="0"/>
</linearGradient>
</defs>
</svg>
