<svg xmlns="http://www.w3.org/2000/svg" xmlns:xlink="http://www.w3.org/1999/xlink" width="500" zoomAndPan="magnify" viewBox="0 0 375 374.999991" height="500" preserveAspectRatio="xMidYMid meet" version="1.0"><defs><g/><clipPath id="7d8545acd8"><path d="M 9.914062 117.292969 L 256.175781 117.292969 L 256.175781 274.042969 L 9.914062 274.042969 Z M 9.914062 117.292969 " clip-rule="nonzero"/></clipPath><clipPath id="45e64d6988"><path d="M 9.914062 130.113281 L 214 130.113281 L 214 274.042969 L 9.914062 274.042969 Z M 9.914062 130.113281 " clip-rule="nonzero"/></clipPath></defs><rect x="-37.5" width="450" fill="#ffffff" y="-37.499999" height="449.999989" fill-opacity="1"/><rect x="-37.5" width="450" fill="#ffffff" y="-37.499999" height="449.999989" fill-opacity="1"/><rect x="-37.5" width="450" fill="#000000" y="-37.499999" height="449.999989" fill-opacity="1"/><g fill="#ffffff" fill-opacity="1"><g transform="translate(142.787662, 201.025376)"><g><path d="M 9.03125 0.542969 C 13.820312 0.542969 17.792969 -3.535156 17.792969 -8.324219 L 17.792969 -12.894531 C 17.792969 -13.332031 18.171875 -13.441406 18.335938 -13.003906 L 19.316406 -7.671875 C 28.023438 -7.398438 35.203125 -14.472656 35.203125 -23.125 C 35.203125 -31.722656 28.402344 -38.632812 19.75 -38.632812 L 9.03125 -38.632812 C 3.972656 -38.632812 0 -34.660156 0 -29.816406 L 0 -8.324219 C 0 -3.375 3.972656 0.542969 9.03125 0.542969 Z M 18.609375 -25.136719 C 19.75 -25.136719 20.730469 -24.265625 20.730469 -23.125 C 20.730469 -21.980469 19.75 -21.003906 18.609375 -21.003906 C 18.335938 -21.003906 18.0625 -21.113281 17.792969 -21.273438 L 17.792969 -25.027344 C 18.0625 -25.136719 18.335938 -25.136719 18.609375 -25.136719 Z M 18.609375 -25.136719 "/></g></g></g><g fill="#ffffff" fill-opacity="1"><g transform="translate(183.262709, 201.025376)"><g><path d="M 8.597656 0 C 13.546875 0 17.355469 -3.972656 17.355469 -8.707031 L 17.355469 -30.089844 C 17.355469 -34.824219 13.546875 -38.632812 8.597656 -38.632812 C 3.808594 -38.632812 0 -34.824219 0 -30.089844 L 0 -8.707031 C 0 -3.972656 3.808594 0 8.597656 0 Z M 8.597656 0 "/></g></g></g><g fill="#ffffff" fill-opacity="1"><g transform="translate(206.656146, 201.025376)"><g><path d="M 23.125 -36.074219 L 18.773438 -31.722656 L 14.417969 -36.074219 C 12.894531 -37.816406 10.773438 -38.632812 8.597656 -38.632812 C 3.863281 -38.632812 0.164062 -34.769531 0.164062 -29.980469 C 0.164062 -27.804688 0.980469 -25.519531 2.667969 -23.832031 L 6.800781 -19.75 L 2.175781 -14.855469 C 0.542969 -13.113281 -0.273438 -10.882812 -0.273438 -8.652344 C -0.273438 -4.191406 3.375 0 8.105469 0 C 10.230469 0 12.351562 -0.871094 13.984375 -2.613281 L 18.773438 -7.507812 L 23.558594 -2.613281 C 25.191406 -0.871094 27.3125 0 29.4375 0 C 33.953125 0 37.816406 -3.753906 37.816406 -8.652344 C 37.816406 -10.882812 37 -13.113281 35.367188 -14.855469 L 30.742188 -19.75 L 34.878906 -23.832031 C 36.617188 -25.574219 37.378906 -27.804688 37.378906 -29.980469 C 37.378906 -34.769531 33.734375 -38.632812 29 -38.632812 C 26.878906 -38.632812 24.757812 -37.816406 23.125 -36.074219 Z M 23.125 -36.074219 "/></g></g></g><g fill="#ffffff" fill-opacity="1"><g transform="translate(249.95999, 201.025376)"><g><path d="M 0 -29.871094 L 0 -8.597656 C 0 -3.917969 3.808594 0 8.652344 0 L 22.960938 0 C 29 0 31.558594 -5.222656 31.558594 -8.597656 C 31.558594 -10.882812 31.285156 -11.863281 30.742188 -12.785156 C 28.730469 -10.390625 25.898438 -9.847656 23.070312 -10.121094 C 22.6875 -10.121094 22.6875 -10.773438 23.070312 -10.773438 C 28.074219 -11.371094 31.449219 -14.417969 31.449219 -19.480469 C 31.449219 -20.785156 31.175781 -22.089844 30.632812 -23.289062 C 28.457031 -21.003906 25.519531 -20.351562 22.527344 -20.730469 C 22.144531 -20.894531 22.144531 -21.4375 22.527344 -21.4375 C 28.023438 -21.601562 31.449219 -25.355469 31.449219 -29.925781 C 31.449219 -34.386719 28.023438 -38.632812 22.960938 -38.632812 L 8.761719 -38.632812 C 3.644531 -38.632812 0 -34.714844 0 -29.871094 Z M 0 -29.871094 "/></g></g></g><g fill="#ffffff" fill-opacity="1"><g transform="translate(287.225439, 201.025376)"><g><path d="M 8.816406 0 L 19.152344 0 C 24.8125 0 27.640625 -4.351562 27.640625 -8.707031 C 27.640625 -13.058594 24.8125 -17.410156 19.152344 -17.410156 L 17.25 -17.410156 L 17.355469 -29.980469 C 17.410156 -34.714844 13.492188 -38.632812 8.652344 -38.632812 C 3.863281 -38.632812 0 -34.714844 0 -29.980469 L 0 -8.816406 C 0 -3.808594 3.753906 0 8.816406 0 Z M 8.816406 0 "/></g></g></g><g fill="#ffffff" fill-opacity="1"><g transform="translate(320.301933, 201.025376)"><g/></g></g><g clip-path="url(#7d8545acd8)"><path fill="#ffffff" d="M 110.808594 253.417969 C 110.8125 253.449219 110.8125 253.390625 110.8125 253.335938 L 110.8125 253.238281 C 110.808594 253.285156 110.808594 253.328125 110.800781 253.367188 C 110.800781 253.386719 110.804688 253.402344 110.808594 253.417969 Z M 9.921875 166.523438 C 9.929688 161.019531 11.253906 155.398438 13.78125 150.382812 C 16.332031 145.375 20.089844 141 24.652344 137.644531 C 29.210938 134.285156 34.671875 132.066406 40.316406 131.175781 C 41.730469 130.914062 43.148438 130.84375 44.570312 130.765625 L 45.578125 130.722656 L 46.171875 130.707031 L 47.367188 130.683594 C 48.957031 130.644531 50.546875 130.628906 52.140625 130.613281 C 55.320312 130.574219 58.5 130.546875 61.683594 130.5625 C 64.5625 130.554688 67.441406 130.582031 70.320312 130.621094 C 75.382812 122.613281 84.300781 117.292969 94.46875 117.292969 C 110.242188 117.292969 135.792969 130.09375 135.792969 145.886719 C 135.792969 161.679688 110.242188 174.480469 94.46875 174.480469 C 85.367188 174.480469 77.269531 170.214844 72.039062 163.574219 L 71.226562 163.585938 C 68.042969 163.636719 64.863281 163.664062 61.683594 163.65625 C 58.5 163.671875 55.320312 163.644531 52.140625 163.605469 L 44.898438 163.5 C 44.261719 163.527344 43.601562 163.613281 42.96875 163.945312 C 42.328125 164.253906 41.734375 164.730469 41.203125 165.300781 C 40.734375 165.902344 40.371094 166.589844 40.183594 167.445312 L 40.128906 167.605469 L 40.097656 168.179688 L 40.035156 169.375 L 39.980469 170.378906 C 39.976562 170.492188 39.964844 170.601562 39.941406 170.714844 C 39.859375 170.953125 39.941406 171.15625 39.886719 171.390625 C 39.875 171.617188 39.929688 171.828125 39.910156 172.066406 C 40.03125 172.960938 40.367188 173.890625 40.941406 174.734375 C 41.507812 175.589844 42.335938 176.257812 43.257812 176.769531 C 43.476562 176.941406 43.742188 176.972656 43.984375 177.109375 C 44.234375 177.210938 44.507812 177.238281 44.769531 177.351562 C 44.910156 177.363281 45.046875 177.382812 45.1875 177.40625 L 45.398438 177.453125 L 45.507812 177.480469 L 45.800781 177.492188 L 48.1875 177.597656 L 57.730469 177.933594 L 77.578125 178.425781 C 78.9375 178.472656 80.285156 178.742188 81.628906 178.964844 C 82.296875 179.117188 82.957031 179.292969 83.617188 179.46875 C 84.28125 179.636719 84.929688 179.847656 85.570312 180.09375 C 88.160156 180.980469 90.566406 182.320312 92.792969 183.867188 C 95.019531 185.4375 96.96875 187.347656 98.699219 189.429688 C 100.378906 191.558594 101.796875 193.890625 102.871094 196.390625 C 103.894531 198.902344 104.691406 201.535156 104.988281 204.230469 C 105.09375 204.898438 105.152344 205.570312 105.175781 206.246094 C 105.207031 206.917969 105.234375 207.589844 105.242188 208.261719 C 105.167969 209.605469 105.160156 210.949219 104.917969 212.28125 C 104.570312 214.964844 103.734375 217.574219 102.671875 220.046875 C 101.570312 222.519531 100.109375 224.800781 98.417969 226.882812 C 96.667969 228.917969 94.703125 230.761719 92.488281 232.273438 C 90.261719 233.757812 87.875 235.039062 85.316406 235.863281 C 84.683594 236.097656 84.042969 236.285156 83.390625 236.441406 C 82.738281 236.605469 82.089844 236.777344 81.433594 236.90625 C 80.113281 237.113281 78.789062 237.347656 77.460938 237.378906 L 76.464844 237.421875 L 75.964844 237.4375 L 75.726562 237.441406 L 75.574219 237.4375 L 74.382812 237.429688 L 72 237.410156 L 52.910156 237.253906 L 51.71875 237.246094 L 51.121094 237.238281 L 50.972656 237.238281 L 50.90625 237.246094 L 50.792969 237.253906 C 50.492188 237.273438 50.183594 237.246094 49.890625 237.316406 C 49.292969 237.355469 48.738281 237.570312 48.175781 237.757812 C 47.097656 238.238281 46.039062 238.941406 45.316406 239.941406 C 44.910156 240.402344 44.660156 240.960938 44.386719 241.496094 C 44.3125 241.789062 44.144531 242.050781 44.101562 242.355469 C 44.074219 242.5 44.011719 242.640625 43.980469 242.789062 C 43.96875 242.941406 43.945312 243.09375 43.914062 243.242188 C 43.695312 244.476562 43.914062 245.738281 44.316406 246.863281 C 44.75 247.996094 45.515625 249.03125 46.472656 249.824219 C 47.449219 250.59375 48.570312 251.164062 49.796875 251.335938 C 49.953125 251.351562 50.101562 251.402344 50.257812 251.417969 C 50.414062 251.414062 50.574219 251.421875 50.730469 251.4375 L 50.984375 251.464844 L 51.578125 251.464844 L 52.773438 251.472656 L 57.542969 251.492188 L 67.085938 251.53125 L 86.171875 251.613281 C 94.050781 251.648438 101.933594 251.691406 109.816406 251.734375 C 110.578125 251.738281 110.945312 251.5625 110.929688 250.75 C 110.902344 249.375 110.84375 247.996094 110.84375 246.621094 L 110.914062 237.066406 L 110.953125 232.289062 C 110.945312 231.757812 110.988281 230.027344 111.132812 228.699219 C 111.230469 228.003906 111.339844 227.308594 111.460938 226.617188 C 111.609375 225.929688 111.792969 225.246094 111.976562 224.566406 C 113.578125 219.15625 117.007812 214.347656 121.613281 211.175781 C 126.191406 207.980469 131.941406 206.351562 137.460938 206.792969 C 140.230469 206.984375 142.996094 207.636719 145.5625 208.75 C 148.125 209.867188 150.472656 211.425781 152.5 213.3125 C 154.53125 215.199219 156.242188 217.425781 157.542969 219.878906 C 158.84375 222.335938 159.695312 225.035156 160.09375 227.773438 C 160.199219 228.457031 160.289062 229.144531 160.308594 229.832031 L 160.351562 230.863281 L 160.367188 231.378906 L 160.367188 231.726562 L 160.335938 234.113281 L 160.164062 248.441406 L 160.144531 249.9375 C 160.144531 250.042969 160.148438 250 160.152344 250.042969 C 160.15625 250.085938 160.15625 250.125 160.15625 250.167969 C 160.132812 250.257812 160.160156 250.335938 160.167969 250.414062 C 160.160156 250.5 160.179688 250.578125 160.203125 250.652344 C 160.261719 250.964844 160.382812 251.269531 160.5625 251.554688 C 160.929688 252.136719 161.511719 252.597656 162.171875 252.785156 C 162.261719 252.792969 162.347656 252.8125 162.433594 252.847656 C 162.527344 252.84375 162.621094 252.855469 162.710938 252.882812 L 165.011719 252.925781 C 166.074219 252.945312 165.929688 252.933594 166.183594 252.933594 C 166.371094 252.929688 166.546875 252.890625 166.730469 252.863281 C 167.445312 252.710938 168.152344 252.207031 168.582031 251.539062 C 168.800781 251.207031 168.949219 250.84375 169.027344 250.445312 C 169.074219 250.351562 169.0625 250.242188 169.074219 250.136719 C 169.082031 250.070312 169.09375 250.0625 169.105469 249.949219 L 169.113281 249.351562 L 169.15625 246.960938 L 169.324219 237.410156 L 169.410156 232.632812 L 169.464844 230.242188 L 169.507812 229.296875 L 169.582031 228.28125 C 169.628906 227.605469 169.769531 226.933594 169.875 226.261719 C 170.90625 220.886719 174.035156 216.023438 178.382812 212.875 C 180.554688 211.296875 183.03125 210.132812 185.628906 209.464844 C 186.925781 209.125 188.253906 208.925781 189.574219 208.835938 L 190.570312 208.800781 L 191.066406 208.789062 L 191.316406 208.785156 L 191.46875 208.789062 L 192.660156 208.824219 C 193.222656 208.839844 194.835938 208.882812 196.085938 209.070312 C 197.398438 209.253906 198.6875 209.574219 199.941406 209.996094 C 202.441406 210.859375 204.761719 212.195312 206.742188 213.898438 C 210.710938 217.28125 213.332031 222.199219 213.863281 227.339844 C 213.953125 227.976562 213.964844 228.617188 213.980469 229.253906 L 213.992188 230.1875 L 213.964844 230.785156 L 213.863281 233.171875 L 213.652344 237.949219 L 213.191406 247.503906 L 213.0625 249.890625 C 213.050781 250.183594 213.046875 250.296875 213.027344 250.511719 C 213.003906 250.703125 213.042969 250.882812 213.035156 251.074219 C 213.085938 251.828125 213.277344 252.582031 213.617188 253.296875 C 214.269531 254.742188 215.542969 256.007812 217.136719 256.652344 C 217.535156 256.824219 217.957031 256.9375 218.390625 257.03125 L 218.722656 257.082031 L 218.890625 257.113281 C 218.933594 257.128906 219.003906 257.136719 219.121094 257.140625 L 220.3125 257.21875 C 221.902344 257.320312 223.492188 257.417969 225.082031 257.542969 L 234.625 258.265625 C 240.988281 258.78125 247.351562 259.332031 253.710938 260.019531 C 254.976562 260.15625 256.019531 261.15625 256.160156 262.472656 C 256.324219 263.988281 255.226562 265.347656 253.710938 265.511719 C 247.351562 266.199219 240.988281 266.75 234.625 267.265625 L 225.082031 267.988281 C 223.492188 268.113281 221.902344 268.210938 220.3125 268.316406 L 219.121094 268.390625 C 219.035156 268.398438 218.90625 268.402344 218.753906 268.402344 L 218.324219 268.402344 L 217.464844 268.394531 C 216.320312 268.34375 215.164062 268.207031 214.027344 267.9375 C 209.484375 266.90625 205.324219 264.078125 202.648438 260.097656 C 201.3125 258.105469 200.34375 255.839844 199.824219 253.457031 C 199.714844 252.863281 199.574219 252.265625 199.519531 251.660156 C 199.460938 251.078125 199.402344 250.398438 199.375 249.890625 L 199.242188 247.503906 L 198.78125 237.949219 L 198.570312 233.171875 L 198.46875 230.785156 L 198.441406 230.1875 C 198.429688 230.058594 198.410156 230.015625 198.398438 229.925781 C 198.371094 229.773438 198.367188 229.613281 198.304688 229.46875 C 198.011719 228.285156 197.296875 227.265625 196.332031 226.621094 C 195.855469 226.300781 195.328125 226.085938 194.800781 225.980469 C 194.53125 225.941406 194.269531 225.894531 194 225.886719 C 193.671875 225.890625 193.6875 225.886719 192.660156 225.914062 L 191.46875 225.953125 L 191.324219 225.957031 L 191.273438 225.96875 L 191.175781 225.988281 C 191.109375 226 191.042969 226.007812 190.976562 226.011719 C 190.71875 226.066406 190.46875 226.121094 190.238281 226.21875 C 189.769531 226.398438 189.34375 226.664062 188.976562 227 C 188.222656 227.65625 187.765625 228.570312 187.683594 229.476562 L 187.972656 246.960938 L 188.015625 249.351562 L 188.027344 249.949219 L 188 250.953125 C 187.972656 251.640625 187.949219 252.332031 187.835938 253.019531 C 187.496094 255.777344 186.621094 258.484375 185.28125 260.929688 C 182.613281 265.828125 178.074219 269.667969 172.703125 271.433594 C 171.367188 271.863281 169.992188 272.195312 168.597656 272.378906 C 167.277344 272.566406 165.535156 272.597656 165.011719 272.605469 L 162.539062 272.640625 C 161.839844 272.625 161.132812 272.59375 160.433594 272.550781 C 159.734375 272.464844 159.035156 272.367188 158.335938 272.253906 C 152.746094 271.214844 147.613281 267.988281 144.261719 263.398438 C 142.578125 261.109375 141.320312 258.484375 140.585938 255.714844 C 140.394531 255.023438 140.238281 254.324219 140.136719 253.617188 C 140.019531 252.910156 139.914062 252.203125 139.882812 251.492188 L 139.828125 250.425781 L 139.808594 249.9375 L 139.789062 248.441406 L 139.589844 231.726562 C 139.585938 231.644531 139.589844 231.476562 139.582031 231.472656 L 139.566406 231.394531 C 139.558594 231.339844 139.550781 231.285156 139.546875 231.230469 C 139.558594 231.121094 139.523438 231.023438 139.5 230.921875 C 139.359375 230.113281 138.910156 229.390625 138.269531 228.863281 C 137.957031 228.601562 137.609375 228.390625 137.246094 228.25 C 136.875 228.128906 136.503906 228.058594 136.105469 228.042969 C 135.265625 227.976562 134.566406 228.273438 133.933594 228.707031 C 133.289062 229.160156 132.878906 229.875 132.683594 230.5625 C 132.675781 230.65625 132.644531 230.742188 132.621094 230.828125 C 132.625 230.925781 132.613281 231.015625 132.589844 231.105469 C 132.605469 231.363281 132.566406 231.222656 132.582031 232.289062 L 132.6875 246.621094 L 132.71875 252.589844 L 132.722656 253.1875 L 132.71875 253.554688 L 132.699219 254.199219 C 132.664062 255.917969 132.339844 257.644531 131.863281 259.3125 C 130.855469 262.644531 128.996094 265.703125 126.507812 268.09375 C 124.019531 270.488281 120.910156 272.269531 117.527344 273.132812 C 115.855469 273.59375 114.082031 273.769531 112.417969 273.800781 L 110.03125 273.808594 L 105.257812 273.832031 L 86.171875 273.917969 L 67.085938 274 L 57.542969 274.039062 L 52.773438 274.058594 L 51.578125 274.066406 L 50.984375 274.066406 L 50.042969 274.035156 L 48.132812 273.9375 C 47.5 273.882812 46.867188 273.773438 46.230469 273.683594 C 41.152344 272.929688 36.3125 270.734375 32.300781 267.5625 C 28.304688 264.375 25.121094 260.148438 23.191406 255.371094 C 21.285156 250.578125 20.554688 245.328125 21.261719 240.246094 L 21.554688 238.339844 C 21.679688 237.707031 21.847656 237.082031 22.003906 236.457031 C 22.292969 235.199219 22.769531 233.992188 23.214844 232.785156 C 24.222656 230.414062 25.449219 228.121094 27.027344 226.085938 C 30.085938 221.945312 34.261719 218.679688 38.980469 216.5625 C 41.359375 215.558594 43.851562 214.757812 46.414062 214.398438 C 47.691406 214.164062 48.972656 214.089844 50.257812 214.035156 L 50.742188 214.015625 L 51.121094 214.007812 L 51.71875 214 L 52.910156 213.992188 L 72 213.835938 L 74.382812 213.816406 L 75.574219 213.804688 L 75.726562 213.804688 C 75.757812 213.800781 75.761719 213.796875 75.78125 213.796875 L 75.878906 213.78125 L 76.074219 213.765625 C 76.34375 213.785156 76.578125 213.671875 76.832031 213.664062 C 76.957031 213.636719 77.070312 213.582031 77.191406 213.554688 C 77.316406 213.535156 77.4375 213.5 77.546875 213.4375 C 78.023438 213.292969 78.433594 212.980469 78.851562 212.710938 C 79.257812 212.410156 79.589844 212.023438 79.917969 211.652344 C 80.191406 211.230469 80.460938 210.816406 80.632812 210.363281 C 80.769531 209.898438 80.949219 209.457031 80.953125 208.960938 C 81.027344 208.730469 80.941406 208.46875 80.996094 208.226562 C 80.972656 208.101562 80.953125 207.980469 80.949219 207.859375 C 80.953125 207.734375 80.9375 207.613281 80.898438 207.5 C 80.859375 207.015625 80.636719 206.597656 80.476562 206.160156 C 80.265625 205.742188 79.988281 205.359375 79.695312 204.992188 C 79.351562 204.664062 79.023438 204.320312 78.617188 204.082031 C 78.214844 203.863281 77.824219 203.613281 77.378906 203.519531 C 77.28125 203.472656 77.171875 203.441406 77.054688 203.433594 C 76.945312 203.417969 76.839844 203.382812 76.730469 203.355469 C 76.5 203.375 76.289062 203.273438 76.050781 203.316406 L 75.878906 203.3125 L 75.789062 203.304688 C 75.761719 203.304688 75.753906 203.296875 75.625 203.300781 L 74.429688 203.316406 L 72.042969 203.359375 L 67.273438 203.453125 C 64.09375 203.5 60.914062 203.621094 57.730469 203.703125 L 48.1875 204.039062 L 45.800781 204.140625 L 45.503906 204.152344 L 45.011719 204.148438 L 44.03125 204.132812 L 42.070312 204.070312 C 40.761719 203.917969 39.445312 203.792969 38.148438 203.53125 C 36.863281 203.230469 35.546875 203 34.296875 202.550781 C 29.230469 200.941406 24.496094 198.175781 20.671875 194.414062 C 16.839844 190.664062 13.820312 185.996094 12 180.824219 C 11.59375 179.519531 11.175781 178.203125 10.890625 176.867188 C 10.640625 175.519531 10.328125 174.167969 10.246094 172.804688 L 10.085938 170.753906 L 10.003906 169.375 L 9.941406 168.179688 L 9.914062 167.558594 L 9.921875 166.523438 " fill-opacity="1" fill-rule="nonzero"/></g><path fill="#ff3131" d="M 89.957031 131.441406 C 89.320312 130.804688 90.308594 129.816406 90.945312 130.453125 C 92.203125 131.710938 93.460938 132.972656 94.71875 134.230469 C 95.355469 134.871094 94.367188 135.855469 93.734375 135.222656 C 92.476562 133.960938 91.214844 132.703125 89.957031 131.441406 Z M 110.3125 131.441406 C 109.054688 132.703125 107.796875 133.960938 106.539062 135.222656 C 105.902344 135.855469 104.914062 134.871094 105.550781 134.230469 C 106.808594 132.972656 108.066406 131.710938 109.328125 130.453125 C 109.960938 129.816406 110.949219 130.804688 110.3125 131.441406 Z M 100.835938 128.390625 C 100.835938 127.492188 99.4375 127.492188 99.4375 128.390625 C 99.4375 130.171875 99.4375 131.953125 99.4375 133.734375 C 99.4375 134.636719 100.835938 134.636719 100.835938 133.734375 C 100.835938 131.953125 100.835938 130.171875 100.835938 128.390625 " fill-opacity="1" fill-rule="nonzero"/><path fill="#000000" d="M 83.328125 142.824219 C 83.328125 148.257812 94.707031 152.664062 100.136719 152.664062 C 105.5625 152.664062 116.945312 148.257812 116.945312 142.824219 C 116.945312 137.390625 83.328125 137.390625 83.328125 142.824219 " fill-opacity="1" fill-rule="nonzero"/><path fill="#ff3131" d="M 92.601562 142.824219 C 92.601562 146.992188 95.972656 150.371094 100.136719 150.371094 C 104.296875 150.371094 107.671875 146.992188 107.671875 142.824219 C 107.671875 138.65625 104.296875 135.28125 100.136719 135.28125 C 95.972656 135.28125 92.601562 138.65625 92.601562 142.824219 " fill-opacity="1" fill-rule="nonzero"/><g clip-path="url(#45e64d6988)"><path fill="#ff3131" d="M 206.273438 241.1875 C 205.53125 238.988281 205.742188 236.601562 205.957031 234.292969 C 206.355469 230.042969 206.878906 225.496094 209.667969 222.269531 C 210.289062 221.554688 211.011719 220.914062 211.742188 220.277344 C 212.867188 222.488281 213.609375 224.886719 213.863281 227.339844 C 213.953125 227.976562 213.964844 228.617188 213.980469 229.253906 L 213.992188 230.1875 L 213.964844 230.785156 L 213.863281 233.171875 L 213.652344 237.949219 L 213.191406 247.503906 L 213.09375 249.285156 C 212.296875 248.675781 211.550781 247.980469 210.824219 247.289062 C 208.972656 245.515625 207.09375 243.617188 206.273438 241.1875 Z M 146.1875 257.226562 C 148.601562 257.910156 149.527344 260.773438 151.238281 262.605469 C 153.785156 265.339844 158.0625 265.640625 161.699219 264.785156 C 163.253906 264.421875 164.765625 263.878906 166.316406 263.503906 C 169.351562 262.765625 172.535156 262.664062 175.613281 263.203125 C 177.828125 263.59375 180.011719 264.351562 181.910156 265.535156 C 179.394531 268.199219 176.234375 270.273438 172.703125 271.433594 C 171.367188 271.863281 169.992188 272.195312 168.597656 272.378906 C 167.277344 272.566406 165.535156 272.597656 165.011719 272.605469 L 162.539062 272.640625 C 161.839844 272.625 161.132812 272.59375 160.433594 272.550781 C 159.734375 272.464844 159.035156 272.367188 158.335938 272.253906 C 152.746094 271.214844 147.613281 267.988281 144.261719 263.398438 C 143.246094 262.019531 142.410156 260.507812 141.726562 258.925781 C 142.847656 257.601562 144.550781 256.761719 146.1875 257.226562 Z M 155.910156 243.914062 C 153.707031 242.167969 152.644531 239.363281 151.890625 236.648438 C 150.761719 232.5625 150.105469 228.339844 149.945312 224.101562 C 149.898438 222.808594 149.886719 221.488281 149.449219 220.273438 C 148.578125 217.863281 146.1875 216.34375 143.792969 215.449219 C 141.394531 214.554688 138.824219 214.089844 136.574219 212.878906 C 134.242188 211.621094 132.375 209.550781 131.292969 207.132812 C 133.335938 206.753906 135.414062 206.628906 137.460938 206.792969 C 140.230469 206.984375 142.996094 207.636719 145.5625 208.75 C 148.125 209.867188 150.472656 211.425781 152.5 213.3125 C 154.53125 215.199219 156.242188 217.425781 157.542969 219.878906 C 158.84375 222.335938 159.695312 225.035156 160.09375 227.773438 C 160.199219 228.457031 160.289062 229.144531 160.308594 229.832031 L 160.351562 230.863281 L 160.367188 231.378906 L 160.367188 231.726562 L 160.335938 234.113281 L 160.277344 238.890625 L 160.203125 245.230469 C 158.703125 245.328125 157.101562 244.859375 155.910156 243.914062 Z M 120.128906 229.507812 C 121.699219 232.277344 122.261719 236.367188 119.636719 238.164062 C 117.441406 239.667969 113.589844 239.136719 112.816406 241.6875 C 112.515625 242.683594 112.898438 243.742188 112.933594 244.78125 C 112.988281 246.386719 112.136719 247.820312 110.878906 248.820312 C 110.859375 248.085938 110.84375 247.351562 110.84375 246.621094 L 110.914062 237.066406 L 110.953125 232.289062 C 110.945312 231.757812 110.988281 230.027344 111.132812 228.699219 C 111.230469 228.003906 111.339844 227.308594 111.460938 226.617188 C 111.609375 225.929688 111.792969 225.246094 111.976562 224.566406 C 112.207031 223.785156 112.488281 223.019531 112.796875 222.265625 C 115.835938 223.949219 118.414062 226.480469 120.128906 229.507812 Z M 72.488281 269.148438 C 73.117188 267.65625 74.40625 266.351562 76.007812 266.117188 C 79.085938 265.664062 81.488281 269.074219 84.585938 269.367188 C 86.796875 269.582031 88.808594 268.164062 90.496094 266.714844 C 93.179688 264.417969 95.957031 261.714844 99.480469 261.492188 C 102.875 261.277344 106.050781 263.578125 107.746094 266.527344 C 109.011719 268.742188 109.582031 271.257812 109.839844 273.8125 L 105.257812 273.832031 L 86.171875 273.914062 L 71.839844 273.980469 C 71.839844 273.960938 71.835938 273.941406 71.835938 273.921875 C 71.796875 272.304688 71.863281 270.640625 72.488281 269.148438 Z M 31.5625 253.824219 C 33.03125 256.605469 33.113281 259.984375 34.730469 262.683594 C 37.398438 267.125 43.144531 268.28125 47.914062 270.296875 C 50.046875 271.203125 52.117188 272.402344 53.71875 274.054688 L 52.773438 274.058594 L 51.578125 274.066406 L 50.984375 274.066406 L 50.042969 274.035156 L 48.132812 273.9375 C 47.5 273.882812 46.867188 273.773438 46.234375 273.683594 C 41.152344 272.929688 36.3125 270.734375 32.300781 267.5625 C 28.304688 264.375 25.121094 260.148438 23.191406 255.371094 C 22.234375 252.960938 21.574219 250.433594 21.242188 247.871094 C 21.496094 247.882812 21.753906 247.882812 22.007812 247.90625 C 25.894531 248.273438 29.738281 250.371094 31.5625 253.824219 Z M 81.722656 194.003906 C 79.4375 192.542969 77.464844 190.082031 77.75 187.386719 C 77.980469 185.175781 79.714844 183.339844 81.746094 182.445312 C 83.777344 181.550781 86.0625 181.457031 88.277344 181.558594 C 88.554688 181.570312 88.828125 181.613281 89.105469 181.628906 C 90.382812 182.296875 91.617188 183.046875 92.792969 183.867188 C 95.019531 185.433594 96.96875 187.347656 98.699219 189.429688 C 99.925781 190.984375 101.007812 192.648438 101.921875 194.40625 C 99.417969 195.289062 96.867188 196.007812 94.234375 196.339844 C 89.9375 196.886719 85.375 196.332031 81.722656 194.003906 Z M 68.65625 230.347656 C 67.066406 229.167969 64.964844 229.03125 63.050781 228.53125 C 60.585938 227.890625 58.300781 226.582031 56.5 224.78125 C 55.566406 223.851562 54.742188 222.75 54.4375 221.464844 C 53.898438 219.164062 55.179688 216.746094 57.015625 215.261719 C 57.675781 214.730469 58.410156 214.316406 59.167969 213.941406 L 72 213.835938 L 74.382812 213.816406 L 75.574219 213.804688 L 75.726562 213.804688 C 75.757812 213.800781 75.761719 213.796875 75.78125 213.796875 L 75.878906 213.78125 L 76.074219 213.765625 C 76.34375 213.785156 76.578125 213.671875 76.832031 213.664062 C 76.957031 213.636719 77.070312 213.582031 77.191406 213.554688 C 77.316406 213.535156 77.4375 213.5 77.546875 213.4375 C 78.023438 213.292969 78.433594 212.980469 78.851562 212.710938 C 78.972656 212.621094 79.078125 212.511719 79.1875 212.40625 C 81.445312 213.21875 83.65625 214.164062 85.796875 215.253906 C 89.8125 217.304688 93.804688 220.105469 95.445312 224.3125 C 96.246094 226.375 96.078125 229.285156 94.027344 230.113281 C 91.472656 231.144531 89.089844 227.976562 86.339844 227.785156 C 86.679688 230.222656 87.015625 232.65625 87.351562 235.09375 C 86.683594 235.378906 86.007812 235.636719 85.316406 235.863281 C 84.683594 236.097656 84.042969 236.285156 83.390625 236.441406 C 82.738281 236.605469 82.089844 236.777344 81.433594 236.90625 C 80.113281 237.113281 78.789062 237.347656 77.460938 237.378906 L 76.464844 237.421875 L 75.964844 237.4375 L 75.726562 237.441406 L 75.574219 237.4375 L 74.382812 237.429688 L 72.921875 237.417969 C 72.527344 236.699219 72.132812 235.980469 71.789062 235.238281 C 70.96875 233.460938 70.226562 231.515625 68.65625 230.347656 Z M 52.867188 138.894531 C 51.832031 139.785156 50.703125 140.613281 49.394531 141.003906 C 45.308594 142.230469 41.417969 138.980469 37.523438 137.242188 C 34.210938 135.769531 30.441406 135.429688 26.890625 136.144531 C 30.957031 133.625 35.570312 131.925781 40.316406 131.175781 C 41.730469 130.914062 43.148438 130.84375 44.570312 130.765625 L 45.578125 130.722656 L 46.171875 130.707031 L 47.367188 130.683594 C 48.957031 130.644531 50.546875 130.628906 52.140625 130.613281 C 54.140625 130.589844 56.140625 130.589844 58.140625 130.582031 C 57.476562 133.707031 55.355469 136.753906 52.867188 138.894531 Z M 19.753906 157.871094 C 17.488281 156.132812 14.953125 154.832031 12.3125 153.742188 C 10.75 157.84375 9.925781 162.214844 9.921875 166.523438 L 9.914062 167.558594 L 9.941406 168.179688 L 10.003906 169.375 L 10.085938 170.753906 L 10.246094 172.804688 C 10.328125 174.167969 10.640625 175.519531 10.890625 176.867188 C 11.175781 178.203125 11.59375 179.519531 12 180.824219 C 13.820312 185.996094 16.839844 190.664062 20.671875 194.414062 C 24.496094 198.175781 29.230469 200.941406 34.296875 202.550781 C 35.546875 203 36.863281 203.230469 38.148438 203.53125 C 39.445312 203.792969 40.761719 203.917969 42.070312 204.070312 L 43.734375 204.125 C 43.941406 201.503906 43.332031 198.789062 41.863281 196.613281 C 39.554688 193.191406 35.796875 191.109375 32.476562 188.667969 C 29.152344 186.226562 25.957031 182.882812 25.78125 178.757812 C 25.683594 176.421875 26.582031 174.15625 26.804688 171.828125 C 27.324219 166.410156 24.074219 161.179688 19.753906 157.871094 " fill-opacity="1" fill-rule="nonzero"/></g><path fill="#000000" d="M 91.84375 205.753906 C 93.5 205.753906 94.84375 207.101562 94.84375 208.761719 C 94.84375 210.421875 93.5 211.769531 91.84375 211.769531 C 90.183594 211.769531 88.835938 210.421875 88.835938 208.761719 C 88.835938 207.101562 90.183594 205.753906 91.84375 205.753906 Z M 29.144531 147.5 C 30.804688 147.5 32.148438 148.84375 32.148438 150.503906 C 32.148438 152.164062 30.804688 153.511719 29.144531 153.511719 C 27.488281 153.511719 26.140625 152.164062 26.140625 150.503906 C 26.140625 148.84375 27.488281 147.5 29.144531 147.5 Z M 192.078125 214.773438 C 193.738281 214.773438 195.082031 216.121094 195.082031 217.78125 C 195.082031 219.441406 193.738281 220.789062 192.078125 220.789062 C 190.421875 220.789062 189.074219 219.441406 189.074219 217.78125 C 189.074219 216.121094 190.421875 214.773438 192.078125 214.773438 Z M 134.265625 215.152344 C 135.921875 215.152344 137.265625 216.496094 137.265625 218.15625 C 137.265625 219.816406 135.921875 221.164062 134.265625 221.164062 C 132.605469 221.164062 131.257812 219.816406 131.257812 218.15625 C 131.257812 216.496094 132.605469 215.152344 134.265625 215.152344 Z M 63.683594 259.5 C 65.339844 259.5 66.6875 260.847656 66.6875 262.507812 C 66.6875 264.167969 65.339844 265.515625 63.683594 265.515625 C 62.023438 265.515625 60.679688 264.167969 60.679688 262.507812 C 60.679688 260.847656 62.023438 259.5 63.683594 259.5 Z M 217.984375 259.5 C 219.640625 259.5 220.984375 260.847656 220.984375 262.507812 C 220.984375 264.167969 219.640625 265.515625 217.984375 265.515625 C 216.324219 265.515625 214.980469 264.167969 214.980469 262.507812 C 214.980469 260.847656 216.324219 259.5 217.984375 259.5 Z M 158.664062 255.742188 C 160.324219 255.742188 161.667969 257.085938 161.667969 258.746094 C 161.667969 260.40625 160.324219 261.757812 158.664062 261.757812 C 157.007812 261.757812 155.664062 260.40625 155.664062 258.746094 C 155.664062 257.085938 157.007812 255.742188 158.664062 255.742188 Z M 178.1875 242.964844 C 179.847656 242.964844 181.191406 244.308594 181.191406 245.96875 C 181.191406 247.628906 179.847656 248.976562 178.1875 248.976562 C 176.53125 248.976562 175.183594 247.628906 175.183594 245.96875 C 175.183594 244.308594 176.53125 242.964844 178.1875 242.964844 Z M 120.371094 256.117188 C 122.03125 256.117188 123.375 257.464844 123.375 259.125 C 123.375 260.785156 122.03125 262.132812 120.371094 262.132812 C 118.714844 262.132812 117.371094 260.785156 117.371094 259.125 C 117.371094 257.464844 118.714844 256.117188 120.371094 256.117188 Z M 40.40625 227.554688 C 42.066406 227.554688 43.410156 228.898438 43.410156 230.5625 C 43.410156 232.222656 42.066406 233.566406 40.40625 233.566406 C 38.75 233.566406 37.40625 232.222656 37.40625 230.5625 C 37.40625 228.898438 38.75 227.554688 40.40625 227.554688 Z M 38.90625 252.734375 C 40.566406 252.734375 41.910156 254.082031 41.910156 255.742188 C 41.910156 257.402344 40.566406 258.746094 38.90625 258.746094 C 37.246094 258.746094 35.902344 257.402344 35.902344 255.742188 C 35.902344 254.082031 37.246094 252.734375 38.90625 252.734375 Z M 53.171875 187.714844 C 54.832031 187.714844 56.175781 189.058594 56.175781 190.71875 C 56.175781 192.378906 54.832031 193.726562 53.171875 193.726562 C 51.515625 193.726562 50.167969 192.378906 50.167969 190.71875 C 50.167969 189.058594 51.515625 187.714844 53.171875 187.714844 Z M 62.183594 151.632812 C 63.839844 151.632812 65.1875 152.976562 65.1875 154.640625 C 65.1875 156.300781 63.839844 157.648438 62.183594 157.648438 C 60.523438 157.648438 59.179688 156.300781 59.179688 154.640625 C 59.179688 152.976562 60.523438 151.632812 62.183594 151.632812 Z M 110.8125 253.238281 C 110.808594 253.285156 110.808594 253.328125 110.800781 253.367188 C 110.800781 253.386719 110.804688 253.402344 110.808594 253.417969 C 110.8125 253.449219 110.8125 253.390625 110.8125 253.335938 L 110.8125 253.238281 " fill-opacity="1" fill-rule="nonzero"/><g fill="#ffffff" fill-opacity="1"><g transform="translate(216.624167, 237.378785)"><g><path d="M 9.0625 -10.078125 C 9.925781 -10.078125 10.585938 -10.28125 11.046875 -10.6875 C 11.515625 -11.09375 11.75 -11.707031 11.75 -12.53125 C 11.75 -13.3125 11.503906 -13.914062 11.015625 -14.34375 C 10.535156 -14.769531 9.832031 -14.984375 8.90625 -14.984375 C 8.570312 -14.984375 8.296875 -14.976562 8.078125 -14.96875 C 7.859375 -14.957031 7.632812 -14.929688 7.40625 -14.890625 L 7.40625 -10.078125 Z M 7.4375 -0.125 C 7.21875 -0.0625 6.863281 0 6.375 0.0625 C 5.882812 0.125 5.40625 0.15625 4.9375 0.15625 C 4.457031 0.15625 4.035156 0.117188 3.671875 0.046875 C 3.304688 -0.0234375 3 -0.15625 2.75 -0.34375 C 2.507812 -0.53125 2.328125 -0.785156 2.203125 -1.109375 C 2.078125 -1.441406 2.015625 -1.878906 2.015625 -2.421875 L 2.015625 -17.03125 C 2.015625 -17.457031 2.132812 -17.789062 2.375 -18.03125 C 2.613281 -18.269531 2.9375 -18.460938 3.34375 -18.609375 C 4.050781 -18.859375 4.851562 -19.039062 5.75 -19.15625 C 6.65625 -19.269531 7.5625 -19.328125 8.46875 -19.328125 C 11.320312 -19.328125 13.503906 -18.710938 15.015625 -17.484375 C 16.523438 -16.265625 17.28125 -14.613281 17.28125 -12.53125 C 17.28125 -11.519531 17.117188 -10.601562 16.796875 -9.78125 C 16.472656 -8.96875 15.992188 -8.265625 15.359375 -7.671875 C 14.734375 -7.085938 13.9375 -6.632812 12.96875 -6.3125 C 12.007812 -5.988281 10.898438 -5.828125 9.640625 -5.828125 L 7.4375 -5.828125 Z M 7.4375 -0.125 "/></g></g></g><g fill="#ffffff" fill-opacity="1"><g transform="translate(240.283311, 237.378785)"><g><path d="M 11.875 -0.125 C 11.644531 -0.0625 11.289062 0 10.8125 0.0625 C 10.34375 0.125 9.878906 0.15625 9.421875 0.15625 C 8.472656 0.15625 7.757812 -0.00390625 7.28125 -0.328125 C 6.8125 -0.648438 6.578125 -1.328125 6.578125 -2.359375 L 6.578125 -6.546875 C 6.054688 -7.304688 5.492188 -8.148438 4.890625 -9.078125 C 4.296875 -10.015625 3.707031 -10.96875 3.125 -11.9375 C 2.550781 -12.914062 2.015625 -13.875 1.515625 -14.8125 C 1.023438 -15.75 0.625 -16.613281 0.3125 -17.40625 C 0.582031 -17.769531 0.945312 -18.109375 1.40625 -18.421875 C 1.875 -18.734375 2.445312 -18.890625 3.125 -18.890625 C 3.9375 -18.890625 4.59375 -18.722656 5.09375 -18.390625 C 5.601562 -18.054688 6.085938 -17.4375 6.546875 -16.53125 L 9.125 -11.359375 L 9.3125 -11.359375 C 9.59375 -11.992188 9.84375 -12.570312 10.0625 -13.09375 C 10.28125 -13.625 10.492188 -14.15625 10.703125 -14.6875 C 10.910156 -15.21875 11.125 -15.765625 11.34375 -16.328125 C 11.570312 -16.898438 11.832031 -17.554688 12.125 -18.296875 C 12.5 -18.484375 12.910156 -18.628906 13.359375 -18.734375 C 13.816406 -18.835938 14.253906 -18.890625 14.671875 -18.890625 C 15.390625 -18.890625 16.003906 -18.695312 16.515625 -18.3125 C 17.023438 -17.925781 17.28125 -17.351562 17.28125 -16.59375 C 17.28125 -16.34375 17.226562 -16.039062 17.125 -15.6875 C 17.019531 -15.34375 16.78125 -14.8125 16.40625 -14.09375 C 16.03125 -13.382812 15.484375 -12.414062 14.765625 -11.1875 C 14.054688 -9.96875 13.09375 -8.378906 11.875 -6.421875 Z M 11.875 -0.125 "/></g></g></g><g fill="#ffffff" fill-opacity="1"><g transform="translate(263.725424, 237.378785)"><g><path d="M 1.140625 -14.453125 C 1.003906 -14.679688 0.875 -14.988281 0.75 -15.375 C 0.625 -15.769531 0.5625 -16.1875 0.5625 -16.625 C 0.5625 -17.425781 0.738281 -18.003906 1.09375 -18.359375 C 1.457031 -18.710938 1.929688 -18.890625 2.515625 -18.890625 L 16.03125 -18.890625 C 16.175781 -18.660156 16.3125 -18.347656 16.4375 -17.953125 C 16.5625 -17.566406 16.625 -17.15625 16.625 -16.71875 C 16.625 -15.914062 16.441406 -15.335938 16.078125 -14.984375 C 15.710938 -14.628906 15.242188 -14.453125 14.671875 -14.453125 L 11.234375 -14.453125 L 11.234375 -0.125 C 11.003906 -0.0625 10.644531 0 10.15625 0.0625 C 9.664062 0.125 9.1875 0.15625 8.71875 0.15625 C 8.238281 0.15625 7.816406 0.117188 7.453125 0.046875 C 7.097656 -0.0234375 6.796875 -0.15625 6.546875 -0.34375 C 6.296875 -0.53125 6.109375 -0.785156 5.984375 -1.109375 C 5.859375 -1.441406 5.796875 -1.878906 5.796875 -2.421875 L 5.796875 -14.453125 Z M 1.140625 -14.453125 "/></g></g></g><g fill="#ffffff" fill-opacity="1"><g transform="translate(286.609494, 237.378785)"><g><path d="M 18.828125 -0.125 C 18.597656 -0.0625 18.238281 0 17.75 0.0625 C 17.269531 0.125 16.789062 0.15625 16.3125 0.15625 C 15.832031 0.15625 15.410156 0.117188 15.046875 0.046875 C 14.691406 -0.0234375 14.390625 -0.15625 14.140625 -0.34375 C 13.890625 -0.53125 13.703125 -0.785156 13.578125 -1.109375 C 13.460938 -1.441406 13.40625 -1.878906 13.40625 -2.421875 L 13.40625 -7.25 L 7.4375 -7.25 L 7.4375 -0.125 C 7.21875 -0.0625 6.863281 0 6.375 0.0625 C 5.882812 0.125 5.40625 0.15625 4.9375 0.15625 C 4.457031 0.15625 4.035156 0.117188 3.671875 0.046875 C 3.304688 -0.0234375 3 -0.15625 2.75 -0.34375 C 2.507812 -0.53125 2.328125 -0.785156 2.203125 -1.109375 C 2.078125 -1.441406 2.015625 -1.878906 2.015625 -2.421875 L 2.015625 -18.796875 C 2.242188 -18.835938 2.601562 -18.894531 3.09375 -18.96875 C 3.59375 -19.039062 4.070312 -19.078125 4.53125 -19.078125 C 5 -19.078125 5.414062 -19.039062 5.78125 -18.96875 C 6.144531 -18.894531 6.453125 -18.765625 6.703125 -18.578125 C 6.953125 -18.390625 7.132812 -18.128906 7.25 -17.796875 C 7.375 -17.472656 7.4375 -17.039062 7.4375 -16.5 L 7.4375 -11.53125 L 13.40625 -11.53125 L 13.40625 -18.796875 C 13.625 -18.835938 13.984375 -18.894531 14.484375 -18.96875 C 14.984375 -19.039062 15.457031 -19.078125 15.90625 -19.078125 C 16.382812 -19.078125 16.800781 -19.039062 17.15625 -18.96875 C 17.519531 -18.894531 17.828125 -18.765625 18.078125 -18.578125 C 18.328125 -18.390625 18.515625 -18.128906 18.640625 -17.796875 C 18.765625 -17.472656 18.828125 -17.039062 18.828125 -16.5 Z M 18.828125 -0.125 "/></g></g></g><g fill="#ffffff" fill-opacity="1"><g transform="translate(313.089884, 237.378785)"><g><path d="M 1.078125 -9.421875 C 1.078125 -11.035156 1.332031 -12.460938 1.84375 -13.703125 C 2.351562 -14.941406 3.046875 -15.976562 3.921875 -16.8125 C 4.796875 -17.65625 5.828125 -18.296875 7.015625 -18.734375 C 8.210938 -19.171875 9.503906 -19.390625 10.890625 -19.390625 C 12.273438 -19.390625 13.5625 -19.171875 14.75 -18.734375 C 15.9375 -18.296875 16.972656 -17.65625 17.859375 -16.8125 C 18.753906 -15.976562 19.453125 -14.941406 19.953125 -13.703125 C 20.460938 -12.460938 20.71875 -11.035156 20.71875 -9.421875 C 20.71875 -7.816406 20.46875 -6.382812 19.96875 -5.125 C 19.476562 -3.875 18.789062 -2.832031 17.90625 -2 C 17.03125 -1.164062 15.992188 -0.53125 14.796875 -0.09375 C 13.597656 0.34375 12.296875 0.5625 10.890625 0.5625 C 9.484375 0.5625 8.175781 0.335938 6.96875 -0.109375 C 5.769531 -0.554688 4.738281 -1.203125 3.875 -2.046875 C 3.007812 -2.890625 2.328125 -3.929688 1.828125 -5.171875 C 1.328125 -6.421875 1.078125 -7.835938 1.078125 -9.421875 Z M 6.671875 -9.421875 C 6.671875 -7.546875 7.050781 -6.140625 7.8125 -5.203125 C 8.582031 -4.273438 9.609375 -3.8125 10.890625 -3.8125 C 12.191406 -3.8125 13.222656 -4.273438 13.984375 -5.203125 C 14.753906 -6.140625 15.140625 -7.546875 15.140625 -9.421875 C 15.140625 -11.285156 14.757812 -12.679688 14 -13.609375 C 13.25 -14.546875 12.222656 -15.015625 10.921875 -15.015625 C 9.640625 -15.015625 8.609375 -14.550781 7.828125 -13.625 C 7.054688 -12.707031 6.671875 -11.304688 6.671875 -9.421875 Z M 6.671875 -9.421875 "/></g></g></g><g fill="#ffffff" fill-opacity="1"><g transform="translate(340.531325, 237.378785)"><g><path d="M 19.046875 -0.65625 C 18.753906 -0.363281 18.332031 -0.140625 17.78125 0.015625 C 17.238281 0.171875 16.582031 0.25 15.8125 0.25 C 15.050781 0.25 14.328125 0.132812 13.640625 -0.09375 C 12.960938 -0.320312 12.40625 -0.867188 11.96875 -1.734375 L 8.90625 -8 C 8.59375 -8.644531 8.3125 -9.25 8.0625 -9.8125 C 7.8125 -10.382812 7.539062 -11.039062 7.25 -11.78125 L 7.078125 -11.75 C 7.160156 -10.632812 7.207031 -9.5 7.21875 -8.34375 C 7.226562 -7.1875 7.234375 -6.050781 7.234375 -4.9375 L 7.234375 -0.125 C 7.003906 -0.0625 6.65625 0 6.1875 0.0625 C 5.71875 0.125 5.257812 0.15625 4.8125 0.15625 C 4.351562 0.15625 3.945312 0.125 3.59375 0.0625 C 3.25 0 2.960938 -0.125 2.734375 -0.3125 C 2.503906 -0.5 2.328125 -0.75 2.203125 -1.0625 C 2.078125 -1.382812 2.015625 -1.804688 2.015625 -2.328125 L 2.015625 -17.828125 C 2.304688 -18.242188 2.75 -18.554688 3.34375 -18.765625 C 3.945312 -18.972656 4.585938 -19.078125 5.265625 -19.078125 C 6.035156 -19.078125 6.765625 -18.957031 7.453125 -18.71875 C 8.148438 -18.476562 8.707031 -17.9375 9.125 -17.09375 L 12.21875 -10.828125 C 12.53125 -10.179688 12.8125 -9.570312 13.0625 -9 C 13.3125 -8.4375 13.578125 -7.785156 13.859375 -7.046875 L 14.015625 -7.078125 C 13.929688 -8.191406 13.878906 -9.304688 13.859375 -10.421875 C 13.835938 -11.535156 13.828125 -12.648438 13.828125 -13.765625 L 13.828125 -18.796875 C 14.054688 -18.859375 14.398438 -18.921875 14.859375 -18.984375 C 15.328125 -19.046875 15.789062 -19.078125 16.25 -19.078125 C 17.15625 -19.078125 17.847656 -18.914062 18.328125 -18.59375 C 18.804688 -18.269531 19.046875 -17.601562 19.046875 -16.59375 Z M 19.046875 -0.65625 "/></g></g></g><g fill="#ffffff" fill-opacity="1"><g transform="translate(142.787662, 151.536067)"><g><path d="M 5.550781 -11.316406 C 2.339844 -11.316406 -0.328125 -8.761719 -0.328125 -5.441406 C -0.328125 -2.175781 2.339844 0.542969 5.550781 0.542969 C 8.867188 0.542969 11.589844 -2.175781 11.589844 -5.441406 C 11.589844 -8.761719 8.867188 -11.316406 5.550781 -11.316406 Z M 5.550781 -11.316406 "/></g></g></g><g fill="#ffffff" fill-opacity="1"><g transform="translate(159.242147, 151.536067)"><g><path d="M 5.550781 -11.316406 C 2.339844 -11.316406 -0.328125 -8.761719 -0.328125 -5.441406 C -0.328125 -2.175781 2.339844 0.542969 5.550781 0.542969 C 8.867188 0.542969 11.589844 -2.175781 11.589844 -5.441406 C 11.589844 -8.761719 8.867188 -11.316406 5.550781 -11.316406 Z M 5.550781 -11.316406 "/></g></g></g><g fill="#ffffff" fill-opacity="1"><g transform="translate(175.696635, 151.536067)"><g><path d="M 5.550781 -11.316406 C 2.339844 -11.316406 -0.328125 -8.761719 -0.328125 -5.441406 C -0.328125 -2.175781 2.339844 0.542969 5.550781 0.542969 C 8.867188 0.542969 11.589844 -2.175781 11.589844 -5.441406 C 11.589844 -8.761719 8.867188 -11.316406 5.550781 -11.316406 Z M 5.550781 -11.316406 "/></g></g></g><g fill="#ffffff" fill-opacity="1"><g transform="translate(192.15112, 151.536067)"><g><path d="M 5.550781 -11.316406 C 2.339844 -11.316406 -0.328125 -8.761719 -0.328125 -5.441406 C -0.328125 -2.175781 2.339844 0.542969 5.550781 0.542969 C 8.867188 0.542969 11.589844 -2.175781 11.589844 -5.441406 C 11.589844 -8.761719 8.867188 -11.316406 5.550781 -11.316406 Z M 5.550781 -11.316406 "/></g></g></g><g fill="#ffffff" fill-opacity="1"><g transform="translate(208.43258, 151.536067)"><g><path d="M 5.550781 -11.316406 C 2.339844 -11.316406 -0.328125 -8.761719 -0.328125 -5.441406 C -0.328125 -2.175781 2.339844 0.542969 5.550781 0.542969 C 8.867188 0.542969 11.589844 -2.175781 11.589844 -5.441406 C 11.589844 -8.761719 8.867188 -11.316406 5.550781 -11.316406 Z M 5.550781 -11.316406 "/></g></g></g><g fill="#ffffff" fill-opacity="1"><g transform="translate(224.887079, 151.536067)"><g><path d="M 5.550781 -11.316406 C 2.339844 -11.316406 -0.328125 -8.761719 -0.328125 -5.441406 C -0.328125 -2.175781 2.339844 0.542969 5.550781 0.542969 C 8.867188 0.542969 11.589844 -2.175781 11.589844 -5.441406 C 11.589844 -8.761719 8.867188 -11.316406 5.550781 -11.316406 Z M 5.550781 -11.316406 "/></g></g></g><g fill="#ffffff" fill-opacity="1"><g transform="translate(241.34155, 151.536067)"><g><path d="M 5.550781 -11.316406 C 2.339844 -11.316406 -0.328125 -8.761719 -0.328125 -5.441406 C -0.328125 -2.175781 2.339844 0.542969 5.550781 0.542969 C 8.867188 0.542969 11.589844 -2.175781 11.589844 -5.441406 C 11.589844 -8.761719 8.867188 -11.316406 5.550781 -11.316406 Z M 5.550781 -11.316406 "/></g></g></g><g fill="#ffffff" fill-opacity="1"><g transform="translate(257.796052, 151.536067)"><g><path d="M 5.550781 -11.316406 C 2.339844 -11.316406 -0.328125 -8.761719 -0.328125 -5.441406 C -0.328125 -2.175781 2.339844 0.542969 5.550781 0.542969 C 8.867188 0.542969 11.589844 -2.175781 11.589844 -5.441406 C 11.589844 -8.761719 8.867188 -11.316406 5.550781 -11.316406 Z M 5.550781 -11.316406 "/></g></g></g><g fill="#ffffff" fill-opacity="1"><g transform="translate(274.077527, 151.536067)"><g><path d="M 5.550781 -11.316406 C 2.339844 -11.316406 -0.328125 -8.761719 -0.328125 -5.441406 C -0.328125 -2.175781 2.339844 0.542969 5.550781 0.542969 C 8.867188 0.542969 11.589844 -2.175781 11.589844 -5.441406 C 11.589844 -8.761719 8.867188 -11.316406 5.550781 -11.316406 Z M 5.550781 -11.316406 "/></g></g></g><g fill="#ffffff" fill-opacity="1"><g transform="translate(290.531997, 151.536067)"><g><path d="M 5.550781 -11.316406 C 2.339844 -11.316406 -0.328125 -8.761719 -0.328125 -5.441406 C -0.328125 -2.175781 2.339844 0.542969 5.550781 0.542969 C 8.867188 0.542969 11.589844 -2.175781 11.589844 -5.441406 C 11.589844 -8.761719 8.867188 -11.316406 5.550781 -11.316406 Z M 5.550781 -11.316406 "/></g></g></g><g fill="#ffffff" fill-opacity="1"><g transform="translate(306.986497, 151.536067)"><g><path d="M 5.550781 -11.316406 C 2.339844 -11.316406 -0.328125 -8.761719 -0.328125 -5.441406 C -0.328125 -2.175781 2.339844 0.542969 5.550781 0.542969 C 8.867188 0.542969 11.589844 -2.175781 11.589844 -5.441406 C 11.589844 -8.761719 8.867188 -11.316406 5.550781 -11.316406 Z M 5.550781 -11.316406 "/></g></g></g><g fill="#ffffff" fill-opacity="1"><g transform="translate(323.440999, 151.536067)"><g><path d="M 5.550781 -11.316406 C 2.339844 -11.316406 -0.328125 -8.761719 -0.328125 -5.441406 C -0.328125 -2.175781 2.339844 0.542969 5.550781 0.542969 C 8.867188 0.542969 11.589844 -2.175781 11.589844 -5.441406 C 11.589844 -8.761719 8.867188 -11.316406 5.550781 -11.316406 Z M 5.550781 -11.316406 "/></g></g></g><g fill="#ffffff" fill-opacity="1"><g transform="translate(337.499982, 151.536067)"><g><path d="M 5.550781 -11.316406 C 2.339844 -11.316406 -0.328125 -8.761719 -0.328125 -5.441406 C -0.328125 -2.175781 2.339844 0.542969 5.550781 0.542969 C 8.867188 0.542969 11.589844 -2.175781 11.589844 -5.441406 C 11.589844 -8.761719 8.867188 -11.316406 5.550781 -11.316406 Z M 5.550781 -11.316406 "/></g></g></g><g fill="#ffffff" fill-opacity="1"><g transform="translate(353.954482, 151.536067)"><g><path d="M 5.550781 -11.316406 C 2.339844 -11.316406 -0.328125 -8.761719 -0.328125 -5.441406 C -0.328125 -2.175781 2.339844 0.542969 5.550781 0.542969 C 8.867188 0.542969 11.589844 -2.175781 11.589844 -5.441406 C 11.589844 -8.761719 8.867188 -11.316406 5.550781 -11.316406 Z M 5.550781 -11.316406 "/></g></g></g></svg>